<svg id="Layer_1" data-name="Layer 1" xmlns="http://www.w3.org/2000/svg" viewBox="0 0 1000 1000"><defs><style>.cls-1{fill:#fff;}</style></defs><path id="RED" class="cls-1" d="M500,722.12,959.16,488.56,1000,467.79l-38-28.5L821.89,334.21,750.59,84.65l-23.8-83.3L694.62,81.79,632.53,237,513.24,177.36,500,170.73l-13.24,6.63L367.47,237,305.38,81.79,273.21,1.35l-23.8,83.3L177.91,334.9,55.77,426l161.32-47.55L228,375.2l4.32-15.14,50.24-175.84,41.86,104.66,12,29.89,28.79-14.4L500,237l134.83,67.41,28.79,14.4,12-29.89,41.86-104.66,50.24,175.84,2.74,9.58,8,6,114.54,85.91-41.26,27.37L500,277.88,40.84,511.44,0,532.21l38,28.5L178.11,665.79l71.3,249.56,23.8,83.3,32.17-80.44L367.47,763l119.29,59.64L500,829.27l13.24-6.63L632.53,763l62.09,155.21,32.17,80.44,23.8-83.3,71.5-250.25L944.23,574,782.91,621.59,772,624.8l-4.32,15.14L717.44,815.78,675.58,711.12l-12-29.89-28.79,14.4L500,763,365.17,695.63l-28.79-14.4-12,29.89L282.56,815.78,232.32,639.94l-2.74-9.58-8-6L107.07,538.48l41.26-27.37ZM648.08,500A148.08,148.08,0,1,1,500,351.92,148.08,148.08,0,0,1,648.08,500ZM500,426a74,74,0,1,1-74,74A74,74,0,0,1,500,426Z"/></svg>