<svg id="Layer_1" data-name="Layer 1" xmlns="http://www.w3.org/2000/svg" viewBox="0 0 920 720"><defs><style>.cls-1{fill:#d4145a;}</style></defs><path class="cls-1" d="M859.81,694.72c-.43,6.85-1.09,12.88-1.06,18.9,0,2.14,1.7,4.25,2.62,6.38,1.18-1.84,3.07-3.5,3.38-5.54.87-5.69,1.08-11.54,1.55-17.4,5.12,6.81,5.12,6.81,10.72-6.11,1,5.27,1.8,9.6,2.61,13.94l2,.17c.76-2.71,2-5.37,2.2-8.14.4-5.09,2.36-7.34,6.35-8.12a32.25,32.25,0,0,0,12.21-5.24l-16.2-4c.57-15,1.52-30.3,1.66-45.58.38-42.68,1.06-85.38.48-128C887.13,416,885,326.15,883.6,236.26c-.8-52.22-.86-104.47-1.24-156.71,0-2.12.25-4.25.14-6.36-.24-4.69,1.24-6.75,5.19-6.47,8.25.58,16.52,1,24.79,1.16,1.95.05,3.92-.84,7.52-1.69-12.36-11-25-6.7-37-8.92-.94-12.42,5.86-26.35-6.25-36.94-.54,12.3-1,23.67-1.53,35-3.92,1.83-5.74.55-6-4.65a149.58,149.58,0,0,0-1.54-18.15c-.38-2.29-2.68-4.09-4.1-6.12-.69,2.39-1.95,4.79-1.95,7.18,0,6.86.53,13.71,1,22.7C602.58,25.57,343,26.24,82.29,51.28c.87-12.39,1.67-23.36,2.38-34.34A92.5,92.5,0,0,0,85,5.06c-.1-1.7-1.51-3.27-2.33-4.89-1.14,1.32-3,2.43-3.29,4-1.83,9.77-3.53,19.59-4.82,29.49-.7,5.39-.51,11-2.25,16.63a56.92,56.92,0,0,1-.68-6.07c-.11-11.67,0-23.34-.24-35C71.28,6.13,70.25,3.07,69.67,0L67.91.18A26.78,26.78,0,0,0,67.09,5c0,13.52,0,27.05.4,40.56C67.65,50.9,66,52.33,62,52.68q-24.51,2.16-49,4.91A33.32,33.32,0,0,0,0,62.18c22.34,5.92,44.41-2.29,66.57-1.55l.57,2.1c-1.49.89-2.94,2.4-4.47,2.56C49.52,66.61,36.34,67.54,23.2,69c-2.7.29-5.3,2.16-7.94,3.3.2,1.4.41,2.8.61,4.2L67.5,73.62C55.86,263.29,56.1,452.7,54.8,642.85l-22.52-2.21-.42,2.2c7,7.4,17.18,5.84,24.73,11.63l-.18,2.19h-22l-.33,3.08a60.3,60.3,0,0,0,7.73,2.56C56.37,665,56.35,665,57.52,682.87a46.42,46.42,0,0,0,1,5.7l1.81-.07V667c5.51-1.42,7.31,1.27,7.68,6.41.66,9.07,1.42,18.12,2.79,27.22,4.77-9.77,2.86-20.48,2.36-31.72,6.45.59,12.56,2,18.56,1.56,33.85-2.63,67,5.13,100.32,10.15,71.68,10.81,143.62,16.86,215.73,20.63q155.74,8.14,311.56,3.53c45.69-1.39,91.31-6.68,137-10.19C857.17,694.48,858,694.62,859.81,694.72ZM81.94,649c-.18-2.95-.37-4.77-.4-6.59-.75-57-2-114-2.13-171-.22-111.9.19-223.8.38-335.71,0-18,.4-36.06.43-54.09,0-6.29,1.3-9.48,7.22-9.36,10,.19,20-1.13,30-1.4,73.63-1.95,147.25-4,220.89-5.61q80.43-1.71,160.89-2.19c45.54-.29,91.08.18,136.62.42q47.88.27,95.76.82c31.28.35,62.55.88,93.82,1.24,12.3.14,24.6,0,38.36,0,0,32.49.53,63.21-.14,93.89-.78,35.76-3.17,71.47-3.85,107.24-.85,44.26-.88,88.54-.86,132.82,0,54.63.41,109.25.77,163.88q.36,54.09,1.19,108.18c.12,7.6-1.8,9.85-8,9.78-18.94-.23-37.88.73-56.82.75-61.51.07-123,1.18-184.52-.46-70.63-1.88-141.21-6.23-211.81-9.57-35.31-1.67-70.63-3-105.9-5.32-56.51-3.72-113-8-169.47-12.37C110.19,653.27,96.1,650.85,81.94,649ZM80.82,62.74c1.11-1.74,1.65-3.4,2.29-3.46C308.62,37.66,534.23,34.9,760,54.08,533.88,51.36,307.84,50.82,80.82,62.74ZM77.37,647.1c-4.58,1.31-5.62-1.26-5.72-5.84-1.54-75-3.82-149.93-4.53-224.92-.55-57.21.75-114.45,1.47-171.67.23-18.53,1.23-37.06,1.88-55.58h1.9C71.48,341.82,70.75,494.54,77.37,647.1Zm515,46.74c-86.69,3.45-339.63-11.16-379.25-21.72ZM867.61,227.92c4.17,138.38-.14,276.76.25,415.14C865.87,504.68,864.79,366.3,867.61,227.92Zm9.35,219,1.64-.14c0,26.51-.38,53,.11,79.51.48,25.52,2.42,51,2.7,76.51a728.93,728.93,0,0,1-2.88,78.09l-1.57-.13Zm-1.87-284-1.82,0c-1.18-30.84-2.4-61.67-3.42-92.51,0-1.24,1.81-2.56,2.79-3.85.82,1.51,2.34,3,2.35,4.52C875.13,101.6,875.09,132.23,875.09,162.85ZM65.68,644.47l-1.85,1.77c-1-2.19-2.94-4.36-3-6.57-.26-17.42-.18-34.85-.19-52.27q0-14.11,0-28.24h1.21Q63.79,601.82,65.68,644.47Z"/></svg>