<svg xmlns="http://www.w3.org/2000/svg" viewBox="0 0 2000 500"><defs><style>.cls-1{fill:#fff;}</style></defs><g id="Layer_2" data-name="Layer 2"><path class="cls-1" d="M36.4,96.05q2.3-2.85,4.92-2.85,2.3,0,4.92,2.85,2.3,2.13,2.3,7.11,0,1.07-.66,10.31l-1,14.22,5.57-3.55q6.56-4.27,19.85-7.83t23.12-3.55q17.37,0,37.38,8.18a130.15,130.15,0,0,1,36.08,22q23.94,20.27,23.94,59a101,101,0,0,1-5.57,32.71q-6.24,18.84-23,33.42-25.92,22.75-83,23.46-17.06.36-19.84.72c-1.86.23-2.78,1.18-2.78,2.84q0,1.78,2.62,26Q64,344.94,64,355.24q0,13.86-3.61,17.06-2.3,2.49-3.6,2.49t-4.59-2.13q-3.28-1.79-4.6-1.78-2.29,0-2.29,5a34.69,34.69,0,0,1-2.13,11.91c-1.43,3.91-2.9,6.1-4.43,6.58a9.86,9.86,0,0,1-3,.71q-6.24,0-8.86-12.8Q23.94,366.6,21,325t-3.28-72.89v-10q0-48.71,6.56-76.08,2.3-8.88,5.9-38.4Q33.46,99.25,36.4,96.05Zm2.3,175.28q0-17.07-1-17.07a1.31,1.31,0,0,0-1.32,1.07q-1.3,1.42-1.31,15.64,0,17.79,1.64,17.78Q38.7,288.75,38.7,271.33Zm89.53-134q-9.84-5-26.23-5.33H97.4q-23.61,0-37.06,8.53a54.19,54.19,0,0,1-6.23,3.2c-1.09.71-2.68,2.91-4.75,6.58a50.91,50.91,0,0,1-4.1,6.57c-.88.95-1.64,3.2-2.3,6.76-.44,2.84-.49,4.57-.16,5.16s1.69.88,4.1.88c3.28,0,5.46,1.07,6.56,3.2q1,1.78,1,20.63,0,13.16-.33,21-.33,8.19-.32,23.82,0,18.5.65,25.6l1.31,10.31,8.53-3.2a184.53,184.53,0,0,0,57.23-30.57q27.06-21,33.29-40.18a61.59,61.59,0,0,0,3.6-19.55Q158.4,152.57,128.23,137.29Zm48.54,67.2v-6.4q0-17.78-2-17.78c-.44,0-1,2.61-1.64,7.82q-3.93,42-61.33,78.58l-11.47,7.82,7.54-1.42q24.91-3.56,39.68-12.8,17.05-11,24.27-28.09Q175.78,223,176.77,204.49Z"/><path class="cls-1" d="M317,127.69a42.6,42.6,0,0,1,11.15-2.13q5.9,0,9.18,6.4,3.93,6.39,3.93,11,0,8.53-15.08,8.53-7.87,0-20.5,2.67t-17.22,5.15a65.94,65.94,0,0,0-15.74,12.09q-8.2,8.19-10.49,13.87c-2,4.26-3,7.23-3,8.89q0,2.13,2,7.46,5.91,16.37,33.45,37a156.11,156.11,0,0,1,31,30.58q12.94,17.06,16.23,31.64,2.63,9.6,5.25,18.84a67.73,67.73,0,0,1,2.62,17.78q0,23.12-16.89,43.2t-46.4,31.11q-14.76,6-33.78,6A182.62,182.62,0,0,1,230.13,416q-20.34-3.19-21.65-4.62a7.57,7.57,0,0,1-2-5.33q0-5.34,3.61-7.47a11,11,0,0,1,5.25-1.07A57.77,57.77,0,0,1,226.52,399a127.53,127.53,0,0,0,23.94,2.13q16.72,0,26.56-3.2a107.56,107.56,0,0,0,30.83-16q14.43-10.66,20-21.69l4.26-8.17-8.85,8.53q-28.87,27.74-60.35,27.73a40.33,40.33,0,0,1-14.43-2.49q-13.12-4.62-13.12-13.15a6.7,6.7,0,0,1,2-4.62,5.91,5.91,0,0,1,4.59-1.78,17.21,17.21,0,0,1,7.87,2.49c3.5,1.89,5.79,2.84,6.89,2.84,1.53,0,2.3-.95,2.3-2.84q0-5.34,7.54-5.34a13.12,13.12,0,0,1,4.92.71,26.61,26.61,0,0,0,5.57.72q16.39,0,34.44-20.63A58.05,58.05,0,0,0,321,328.57q3.93-9.24,3.94-16,0-8.88-44.93-38.4-28.87-18.84-39.69-32.88T229.14,208.4q0-23.11,18.7-41.6,7.86-8.18,32-21.87T317,127.69ZM287.52,256a89.9,89.9,0,0,0-21-16l-11.81-6.75,4.92,6q3.28,3.55,17.38,14.4t18,10.84c.22,0,0-.35-.65-1.06s-1.59-1.78-2.79-3.2A49.14,49.14,0,0,0,287.52,256Z"/><path class="cls-1" d="M534.8,125.2q8.85-9.95,12.79-10h1.64q5.89.36,5.9,7.11,0,4.62-9.51,15.29-33.78,38.39-61,97.77l-6.23,13.87-.66,75.37q-.66,77.14-1,78.22-1,4.26-5.9,4.26A7.48,7.48,0,0,1,465.6,405q-3-3.19-3.28-22.4V363.06l-5.9,25.6Q448.86,421,442.64,421q-2.29,0-5.9-3.91-2.64-2.85-2.63-10,0-6.75,3.94-54.75,1.63-16.35,1.64-24.89c0-3.79-.55-6.27-1.64-7.46-1.53-2.14-2.3-3.79-2.3-5q0-4.26,6.23-22,5.58-16.35,5.58-20.62,0-1.42-14.76-23.83a669.65,669.65,0,0,1-40.34-69.68,144,144,0,0,0-13.77-22.4q-7.54-10.31-7.54-15.29a3.9,3.9,0,0,1,1.64-3.55q1.63-1.08,1.64-8.89,0-11.73,6.23-11.74,5.56,0,14.43,10.31,9.51,12.11,36.73,54.76,28.86,46.22,30.5,46.22,1,0,10.17-17.07,24.25-45.15,30.17-54.4t10.49-9.24q3.29,0,8.2-6Q534.15,125.92,534.8,125.2Z"/><path class="cls-1" d="M664.93,115.6c1.53-1.18,4.7-1.78,9.51-1.78q11.8,0,31.16,3.56,20.32,3.56,20.33,12.44c0,2.62-.38,4.27-1.15,5s-2.78.95-6.06.71a170,170,0,0,1-17.22-1.78A164.84,164.84,0,0,0,682.31,132a20.53,20.53,0,0,0-4.59.35,27.14,27.14,0,0,0-9.51,2.49q-3.29,1.78-9.18,7.82-8.21,8.19-23.94,28.62t-24.27,33.6a213.69,213.69,0,0,0-16.56,30.22q-8.37,18.13-11.65,29.87-2.94,10-3,12.8c0,1.42.76,4.62,2.3,9.6q6.88,24.18,23.61,48.71a180.79,180.79,0,0,0,18.86,23.46q11.31,12.09,18.53,16.71,10.49,6.41,10.49,12.8c0,2.61-1.75,4.62-5.24,6.05a6.57,6.57,0,0,1-2.63.35q-7.22,0-23.45-4.44t-22.79-8q-12.14-7.12-22.3-22.76a86.91,86.91,0,0,1-13.12-31.64q-1.65-9.6-1.64-32v-7.11q0-21.68-1-37.33-.33-5.69-.33-13.87a139.28,139.28,0,0,1,2.95-25.6q3.93-18.48,9.84-30.22a105.85,105.85,0,0,1,17-23.82q23.94-25.23,59-36.62Q661.33,118.46,664.93,115.6Zm-46.57,51.56q13.11-16.71,13.12-18.85h-.33q-2.29,0-13.12,7.82a134.31,134.31,0,0,0-15.74,12.8q-22,23.48-25.58,57.6l-1,10L582.61,223A345.41,345.41,0,0,1,618.36,167.16ZM587.53,336.75q-6.88-11.38-7.54-11.38c-.66,0-1,.48-1,1.42q0,3.91,5.24,14.22a92.74,92.74,0,0,0,10.5,16.71q11.47,13.17,16.07,13.16c.43,0,.65-.12.65-.36q0-.7-8.52-11.37A165,165,0,0,1,587.53,336.75Z"/><path class="cls-1" d="M831.63,95.69a5.77,5.77,0,0,1,4.59-2.49c2.18,0,4.21,1.31,6.07,3.91a16.84,16.84,0,0,1,2.79,10v6.4l4.92-5.69q4.57-5.69,7.21-5.69,2.29,0,5.08,3t2.79,5.87a6,6,0,0,1-.16,1.07,7.36,7.36,0,0,0-.17,1.77q0,12.81,7,74.67t9,64.35q1.3,1.78,17.71,3.91,16.4,2.49,18.7,5.69a7.67,7.67,0,0,1,2,4.62q0,1.79-3.27,5.34T897.55,276q-14.76,0-14.76,2.84a69.27,69.27,0,0,0,.82,8c.54,3.92.93,7.06,1.15,9.43q1.31,13.15,6.56,46.57t8.2,47.64q2.61,12.45,2.62,14.58c0,1.66-.88,3.43-2.62,5.33a6.69,6.69,0,0,1-4.92,2.49q-4.92,0-6.89-6.4-3.29-9.6-15.91-57.42t-17.21-68.08l-1.32-5.34L819.17,277q-34.11,1.43-35.09,1.77-1.32.72-10.83,27.74-9.18,26.31-13.44,31.64-4.6,5.68-11.81,27.73-9.84,27.38-14.76,37.16t-9.51,9.77a7.69,7.69,0,0,1-3.61-1.06c-2.18-.95-3.28-2.85-3.28-5.69s1.1-6.64,3.28-11.38q3.61-7.11,16.73-43.38,11.8-33.06,21-53.33c1.09-2.36,2.29-5.15,3.61-8.35s2.29-5.51,2.95-6.93l.65-2.14q-3.93,0-20.66,2.14-22.95,2.49-28.2,2.48-7.87,0-10.5-1.95c-1.75-1.3-2.62-3.5-2.62-6.58q0-7.82,15.09-7.82,13.77,0,13.77-5.69,0-5,5.74-6.93t20.5-2.31l18.36-.36,18.7-40.17q17-37.33,27.54-57.25L832,139.42l-1.31-20.62q-.66-11.37-.66-13.51C830,100.55,830.53,97.35,831.63,95.69ZM849.34,250q-9.18-58-10.82-66.49l-2.63-16.35L823.76,191q-8.53,16.71-17.88,37.68t-9.34,22.76l26.89,1.42,26.57.71Zm4.92-74.67c0-.71-.22-4.2-.66-10.49s-1-11.91-1.64-16.88-1.42-7.47-2.29-7.47c-.66,0-1,1.42-1,4.27q0,11.73,4.27,29.51l2.29,11Zm1.31,16.36q0,2.49.33,2.49l.65-3.56V189.2A5.09,5.09,0,0,0,855.57,191.69Zm1.31,11c0,1.66.44,2.08,1.31,1.24a1.67,1.67,0,0,0,0-2.66C857.54,201.29,857.1,201.77,856.88,202.71Z"/><path class="cls-1" d="M1050.11,122.36q17.39-1.78,21-1.78h1q2,0,11.8,1.42,10.5,1.78,15.42,6.76,4.92,5.33,4.92,11,0,3.91-2.63,5t-29.19,1.06q-27.54,0-32.46,1.07l-6.24,1.07q-1.64,10.31-5.41,30.57t-5.74,30.22l3,50.49q2,33.42,2,54a482.53,482.53,0,0,1-3,50.84q-1.63,14.58-4.26,19.56a7.5,7.5,0,0,1-6.89,3.91q-7.21,0-7.21-7.47c0-1.9-1.1-4-3.28-6.4q-3.95-3.92-5.25-15.11t-1.64-40q0-58.67,6.23-100.27,2.63-16,3.28-42.66l1-24.18h-4.92a67,67,0,0,0-14.1,1.42q-42.3,8.19-52.8,8.18a10.35,10.35,0,0,1-4.59-.71c-2.19-.94-3.28-3-3.28-6a8.8,8.8,0,0,1,3.94-7.47c1.74-1.66,2.51-2.54,2.29-2.67s-1.64.18-4.26.89a11.76,11.76,0,0,1-8.53-1.06q-3.62-2.15-3.61-7.47a6.39,6.39,0,0,1,2-5q3.93-3.19,27.06-5.86a418.6,418.6,0,0,1,48-2.67q2.29,0,7,.18c3.17.12,5.52.17,7.06.17h10.49Q1038.3,123.42,1050.11,122.36Z"/><path class="cls-1" d="M1180,124.85a96.38,96.38,0,0,1,22.3-2.49q21.65,0,38.7,8.89,29.19,16.35,29.19,69,0,12.09-.66,18.49-2.62,31.29-10.33,53.51a149.35,149.35,0,0,1-23.77,42.84q-35.1,45.15-52.81,63.29-10.5,11-14.75,11h-1a7.24,7.24,0,0,1-6.23-4.62c-.88-2.38-3.28-3.56-7.21-3.56h-3.61q-12.13,0-15.42-13.51-2.94-13.51-3-128.71,0-43.72,1-56.17a154.74,154.74,0,0,0,1.31-16.71c0-3.32-.66-5.33-2-6.05q-2.62-2.13-2.62-6.75,0-5.34,8.2-10.67Q1153.09,131.61,1180,124.85Zm3,42.31q-17.7-6.41-24.27-6.4c-3.72,0-5.9,1.3-6.56,3.91q-4.9,27.72-4.91,86.39,0,26.67,1.31,41.25,4.26,49.77,7.54,55.1a2.53,2.53,0,0,0,2,.71q8.85,0,29.51-12.44,14.1-8.18,21.81-17.24t15.91-27.2q10.15-21.69,13.61-33.6a87,87,0,0,0,3.44-24.35,60.94,60.94,0,0,0-24.1-48.36Q1205.56,175.33,1182.93,167.16Zm18.7-16.71q-12.14-2.85-15.09-2.85c-.88,0-1.31.24-1.31.71q0,1.78,11.81,6.76,17.37,7.81,28.2,15.29a95.63,95.63,0,0,1,12.63,11.19,134.48,134.48,0,0,1,12.3,16.54,15.47,15.47,0,0,0,1.8,2.84,9.84,9.84,0,0,0,.49-2.84q0-4.62-4.92-14.22T1238,169.64Q1223.93,156.14,1201.63,150.45Z"/><path class="cls-1" d="M1312,144.05a21.22,21.22,0,0,1,7.87-1.43q4.59,0,5.9,1.43t29.52,3.55q84.29,5,90.19,11a8.61,8.61,0,0,1,2,6c0,4.26-1.43,6.75-4.27,7.46q-4.26,1.43-24.59,3.2t-34.44,1.78q-37.71,0-49.52-6.4l-4.27-2.49,3,15.65q3.27,17.41,4.26,50.13l1,34.13,9.19.35a216,216,0,0,1,48.21,7.83q6.22,1.79,7.54,6.4a11.54,11.54,0,0,1,.33,3.2q0,5.32-9.19,7.82t-40,6.4l-17.71,2.13-1,6.76a110.2,110.2,0,0,0-1.31,19.19,267.91,267.91,0,0,1-1.64,29.16q-1.32,12.79-1.31,15.29c0,1.18.1,1.78.32,1.78q2,2.13,42.64,5,6.23.36,24.27,2.85Q1412,384,1434,384q13.77,0,17.87.72a10.87,10.87,0,0,1,6.4,3.2q3,3.19,3,5.33,0,1.77-2,5-1.64,2.13-6.72,2.66t-24.1.54h-24q-39.67-.36-52.8-1.78T1336.87,394a4.74,4.74,0,0,0-4.59-2.49q-3.62,0-4.92,6.4-1.63,9.6-7.87,9.6a7.79,7.79,0,0,1-2.62-.36c-2.85-.71-4.59-2.72-5.25-6a45.4,45.4,0,0,0-4.26-11c-2.19-3.8-2.52-7.11-1-10q1.64-3.56,1.64-11.37,0-2.14-.65-15.65-.66-12.44-2-112.7-.66-54.75-.66-60.44,0-16.71.82-24c.55-4.86,1.2-7.83,2-8.89A10.58,10.58,0,0,1,1312,144.05Zm9.51,127.63q1.3-6,1.31-25.24,0-23.1-1.31-23.11a4.33,4.33,0,0,0-.66,1.07q-1,3.19-1,31.28.33,19.92.66,19.91C1320.69,275.59,1321,274.29,1321.46,271.68Z"/><path class="cls-1" d="M1533.35,101c2-2.14,3.94-3.2,5.91-3.2,2.4,0,4.42,1.83,6.06,5.51s2.46,8.59,2.46,14.75q0,28.8-9.51,95.64-3.62,27.39-8.2,68.62-3.27,30.58-3.28,39.11,0,6,1.64,21.33l3,22.4H1533q2.94,0,38.37-1.42,12.78-.7,39.35-.71,54.12,0,59,3.2c2,1.19,3,3.55,3,7.11s-1.76,6.22-5.25,8-11,3.61-22.63,5.51q-14.76,2.47-52,5.51t-55.59,3.38l-16.73.35v6.05q0,13.14-7.21,13.15-4.27,0-6.07-3c-1.2-2-1.8-5.39-1.8-10.13v-8.89h-7.55c-5.24,0-8.52-1.55-9.84-4.62a7.13,7.13,0,0,1-.65-3.56q0-6.75,10.82-9.6l6.23-1.78V316.48q0-66.84-1.31-90-.66-11.73-.65-35.91,0-59,4.59-65.06c2.18-2.85,4.59-3.79,7.21-2.85,2.18.48,3.5,1.31,3.94,2.49s.76,4.27,1,9.25q0,7.45.66,7.46t6.56-22Q1531.71,102.46,1533.35,101Z"/><path class="cls-1" d="M1712.22,122q3-3.9,8.2-2.84,29.83,5.69,73.13,8.17,21.32,1.44,26.9,3c3.71,1.06,5.57,3.26,5.57,6.57q0,4.27-4.59,6.76t-17.71,5q-21.33,3.92-21.32,5.69c0,.47.87.71,2.63.71,2.4,0,4.47,1.19,6.23,3.55a5.68,5.68,0,0,1,1.64,3.91q0,3.57-7.22,26.67-10.5,34.49-17,60.44l-8.53,33.07v74l-4.26,3.2q-3.94,3.19-3.94,12.8v8.89l15.42,3.2q13.77,2.83,17.71,5a6.88,6.88,0,0,1,3.93,6.4q0,3.92-5.57,7.82a19.34,19.34,0,0,1-11.15,3.92q-6.24,0-18.37-2.32a128.09,128.09,0,0,1-18-4.44q-5.58-2.13-21-4.27-14.76-1.77-15.74-3.55a7.57,7.57,0,0,1-1.31-4.62q0-4.64,6.56-9.25,5.89-3.92,10.16-3.91a36.74,36.74,0,0,1,5.58.36q9.84,1.41,11.48,2.13h.65q2,0,3.28-24.53,5.58-123.73,15.09-173.5,2-12.09,2-13.52,0-1.77-7.22-3.2-12.13-2.13-12.13-11,0-7.11,10.17-9.6a19.2,19.2,0,0,0,3.93-1.24c0-.12-.55-.41-1.64-.89q-2.62-1.06-13.45-2.49-22.62-2.48-22.63-10.31Q1709.59,125.56,1712.22,122Zm61.66,53.69c0-1.42-.55-2.13-1.64-2.13-.88,0-1.64,1.12-2.3,3.37a25.9,25.9,0,0,0-1,7.29c0,1.66.1,2.61.32,2.85s.55-.24,1-1.43l1-2.13A43.88,43.88,0,0,0,1773.88,175.69Z"/><path class="cls-1" d="M1939,115.6c1.53-1.18,4.7-1.78,9.51-1.78q11.81,0,31.16,3.56,20.32,3.56,20.33,12.44c0,2.62-.38,4.27-1.15,5s-2.78.95-6.06.71a170,170,0,0,1-17.22-1.78,164.84,164.84,0,0,0-19.19-1.77,20.59,20.59,0,0,0-4.59.35,27.14,27.14,0,0,0-9.51,2.49q-3.29,1.78-9.18,7.82-8.2,8.19-23.94,28.62t-24.27,33.6a213.69,213.69,0,0,0-16.56,30.22q-8.37,18.13-11.65,29.87-2.94,10-3,12.8,0,2.13,2.3,9.6,6.88,24.18,23.61,48.71a181.64,181.64,0,0,0,18.86,23.46q11.31,12.09,18.53,16.71,10.48,6.41,10.49,12.8c0,2.61-1.75,4.62-5.24,6.05a6.54,6.54,0,0,1-2.63.35q-7.22,0-23.45-4.44t-22.79-8q-12.14-7.12-22.3-22.76A86.91,86.91,0,0,1,1838,328.57q-1.65-9.6-1.64-32v-7.11q0-21.68-1-37.33-.33-5.69-.33-13.87a139.28,139.28,0,0,1,3-25.6q3.93-18.48,9.84-30.22a105.85,105.85,0,0,1,17.05-23.82q23.94-25.23,59-36.62Q1935.4,118.46,1939,115.6Zm-46.57,51.56q13.11-16.71,13.12-18.85h-.33q-2.29,0-13.12,7.82a134.31,134.31,0,0,0-15.74,12.8q-22,23.48-25.58,57.6l-1,10,6.88-13.51A345.41,345.41,0,0,1,1892.43,167.16ZM1861.6,336.75q-6.88-11.38-7.54-11.38c-.66,0-1,.48-1,1.42q0,3.91,5.24,14.22a92.74,92.74,0,0,0,10.5,16.71q11.48,13.17,16.07,13.16c.43,0,.65-.12.65-.36q0-.7-8.52-11.37A165,165,0,0,1,1861.6,336.75Z"/></g></svg>