<svg xmlns="http://www.w3.org/2000/svg" viewBox="0 0 2000 500"><defs><style>.cls-1{fill:#fff;}</style></defs><g id="_4" data-name="4"><path class="cls-1" d="M42.08,192.05l2.19,2.42V196q-2.45,0-5.91,25.61L31,242.46l1.44,24v5.59l1.49,5.6-.75.8v.81l.75,2.42,3.67-.81q-4.68,10.39-5.9,10.39-2.67,0-3.68-17.6v-5.59l-1.49-5.6.75-2.42-1.49-21.57Q5,215.23.74,215.24L0,214.43v-.76c0-1.07,1-1.61,2.93-1.61v-.81L.74,208v-.76c0-1.07.73-1.61,2.19-1.61L13.3,216q5.07,0,11.81,13.61l.7.81h.74A27.79,27.79,0,0,1,31,215.24Q32.14,206.27,42.08,192.05Z"/><path class="cls-1" d="M75.75,185.74h2.66q20.84,9.72,33,35.19l2.67,16-.92,1V239l.92,3.18q0,36.53-29.44,46.9a11,11,0,0,0-7.09,2.14q-16.32,0-27.65-18.12l-2.67-9.58L49,255l-.92-6.41.92-3.17-1.8-2.14v-7.49q0-22.86,23.19-46.9ZM67.7,205V207h4.46L74,209.17v1.09q0,2.13-7.13,3.18-8,19.49-8,44.76l2.66,3.23h.88v2.13c-2.36,0-3.54.71-3.54,2.14q1.78,14.88,9.8,14.89l.87-1,8.92,2.14Q97.1,279,98,270q5.34-23.56,5.34-38.41v-4.22q0-15.65-16.93-24.52l-8.88-2.13Zm7.13-13.9,1.79,2.14h3.59v-2.14Z"/><path class="cls-1" d="M126.51,202.53h.92q3.72,0,3.72,35.28v11.1l-.92,7.06c1.84,0,2.76.67,2.76,2V264q0,13.32,10.23,16.12,0-1.47,10.24-5l2.8-8.06-.92-1,.92-7.07V225.72l-1.88-12.1,1-1-2.8-3v-4l1.84-2h1q7.44,0,12.07,47.43l-.91,1,.91,5v17.17q0,13.23-17.67,17.12h-2.8q-20.43-2.52-20.43-17.12l-5.6-30.26,2.8-4v-2l1.84-19.16-.92-6,.92-1v-1l-.92-6Z"/><path class="cls-1" d="M193.93,203.62q13.47,0,23.27,14.42l-.35,15.46q-.43,7.81-8,17.92,15.35,20.68,29,36.23,8.72,13.38,4.38,21.49l-4.11-1.43q5.2-8.2-5,2.09-25.56-44.3-29-50.74h-1.57v.85l.79,5.12v.86l-.79.85,1.57,5.12v8.54l.79,10.24-.79.86H201.8q-2.36,0-3.15-10.25-1.58,0-2.36-14.51h.79l-.79-.85V255.64l.79-.8V254a4.71,4.71,0,0,1-4.73-3.41l1.58-2.56v-2.56q-5.52-2.23-5.52-4.27v-.86l1.58-1.7h2.36l3.94,2.56v-1.71l-1.58-8.54.79-2.56q-1.75-20.48-4.72-20.48v-1.71Zm8.66,17.07-.79,6.83.79,5.12-.79,7.68h1.58q7.86-.84,7.87-8.48l-1-10.25A30.75,30.75,0,0,1,202.59,220.69Zm1.57,26.46V248h1.58v-.86Zm0,0V248h1.58v-.86Zm24.11,40.5,2.27,4.08,6.39,7.12-5.21-12.52,1.58,7.25Z"/><path class="cls-1" d="M291.37,195.56l1,1-1.88,3,.92,1v2q0,2-7.44,2l-19.51,7-4.64,4L257,240.89H258l12.07-4,2.8,4v1Q268.76,248,257,248h-1v6l-2.76,25.19,18.55-10.06,9.32-2,.91,1.05v3q-3.7,12.11-16.71,12.1,0,2.22-17.67,8.06h-1.84l-2.8-3,2.8-4v-4l-1-5,1-6v-1l-1-4L246.79,253l-.92-7.07q1.57,0,6.48-28.17v-1c-1.84,0-2.76-.67-2.76-2a8.17,8.17,0,0,0,2.76-6Q283,195.57,291.37,195.56Z"/><path class="cls-1" d="M363.59,199.73h.88c1.19,0,1.79,1,1.79,2.94l-.87,4.84.87,2.94-1.79,28.22v10.66l-.88,5.84.88,3.89-.88,1,.88,6.78q0,29.79,3.59,38.89l-1.8,2q-13.81-6.39-20.65-29.16l-4.46-12.66.88-1q-7.18-12.61-7.18-21.39h-1.79l.92,1v2.89l-1.79,26.27v16.55l-1.8,1.9h-.92l-2.67-2.89v-4.84l-.91-7.78.91-6.83-.91-2.94.91-5.83v-.95l-.91-5.83,1.79-2.94-.88-.95v-4.88l1.8-12.67-.92-7.77.92-3.89-.92-7.78,5.38-1.94H334l2.67,2.94-.88.95v1l13.43,50.55q4.59,14.24,7.18,14.61h.91l-1.79-17.5,1.79-4.88-.91-.95,1.79-16.55-.88-4.84V225l1.8-2.9v-5.83Q360.88,199.74,363.59,199.73Z"/><path class="cls-1" d="M405.17,185.74h2.67q20.82,9.72,33,35.19l2.67,16-.92,1V239l.92,3.18q0,36.53-29.44,46.9a11,11,0,0,0-7.09,2.14q-16.32,0-27.65-18.12l-2.67-9.58,1.8-8.53-.92-6.41.92-3.17-1.8-2.14v-7.49q0-22.86,23.19-46.9Zm-8,19.21V207h4.46l1.79,2.14v1.09q0,2.13-7.13,3.18-8,19.49-8,44.76l2.66,3.23h.88v2.13c-2.36,0-3.54.71-3.54,2.14Q390,280.58,398,280.59l.88-1,8.92,2.14q18.69-2.7,19.6-11.72,5.34-23.56,5.34-38.41v-4.22q0-15.65-16.93-24.52L407,200.68Zm7.13-13.9,1.79,2.14h3.59v-2.14Z"/><path class="cls-1" d="M438.31,185.69l1,1.14h1.05l7.26-1.14,30.1,1.14h30.09l-4.15,9,8.83-4.31q-1.1-1.75-7.74,4.55l-30.14,3.13-3.1,1.09v7.92l-2.1,12.33v2.28l1,3.36-1,5.65,3.1,54-3.1,2.23-7.27-10.15L457,274.56l4.11-38.22-1-1.14,2-34.9H447.63q-2.58,0-3.11-4.46h-8.31q-5.55,0-7.26-4.5A9.77,9.77,0,0,1,438.31,185.69Z"/><path class="cls-1" d="M542.52,192.38H545q8.71,0,13.7,13.14v1.75l-3.24,6.12H553q-5-10.53-8.88-10.53-6.9,0-13.73,14-4.42,0-8,17.5l-.79.85.79,4.36-.79.9v.86q3.2,21.72,9.67,33.24l1.62,5.27h2.4V279l-2.4-5.26.78-.85h.84q6.42,6.68,6.43,10.48h1.62q1.35,0,7.26-8.78l-.79-.85V272q1.62-1.75,4-14.89H551.4l-15.32,3.51q-4.85-1.75-4.85-3.51v-1.75q0-3.6,23.4-5.22c0-1.77.54-2.65,1.62-2.65H557q1.92,0,2.45,6.16-1.62,2.61-2.45,10.48l.83.86v.9l-.83,2.6,1.62,3.51q0,9-17.76,19.26h-2.41q-4.95,0-13.74-8.78-9.66-3.08-9.66-15.74l-1.62-7.87,2.4-20.11-.78-3.51q0-14,4.85-14,8.63-24.51,13.69-24.52Q533.63,194.61,542.52,192.38Z"/><path class="cls-1" d="M588.38,185.74h2.67q20.82,9.72,33,35.19l2.66,16-.92,1V239l.92,3.18q0,36.53-29.44,46.9a11,11,0,0,0-7.08,2.14q-16.32,0-27.65-18.12l-2.67-9.58,1.79-8.53-.91-6.41.91-3.17-1.79-2.14v-7.49q0-22.86,23.19-46.9Zm-8,19.21V207h4.47l1.79,2.14v1.09q0,2.13-7.13,3.18-8,19.49-8,44.76l2.67,3.23H575v2.13c-2.37,0-3.55.71-3.55,2.14q1.8,14.88,9.8,14.89l.88-1,8.92,2.14q18.68-2.7,19.6-11.72Q616,246.4,616,231.55v-4.22q0-15.65-16.93-24.52l-8.88-2.13Zm7.13-13.9,1.8,2.14h3.58v-2.14Z"/><path class="cls-1" d="M671.26,199.73h.87q1.8,0,1.8,2.94l-.88,4.84.88,2.94-1.8,28.22v10.66l-.87,5.84.87,3.89-.87,1,.87,6.78q0,29.79,3.59,38.89l-1.79,2q-13.83-6.39-20.65-29.16l-4.46-12.66.87-1q-7.17-12.61-7.17-21.39h-1.79l.91,1v2.89l-1.79,26.27v16.55l-1.79,1.9h-.92l-2.67-2.89v-4.84l-.92-7.78.92-6.83-.92-2.94.92-5.83v-.95l-.92-5.83,1.79-2.94-.87-.95v-4.88l1.79-12.67-.92-7.77.92-3.89-.92-7.78,5.39-1.94h.91l2.67,2.94-.87.95v1l13.43,50.55q4.59,14.24,7.17,14.61H665l-1.79-17.5,1.79-4.88-.92-.95,1.79-16.55-.87-4.84V225l1.79-2.9v-5.83Q668.55,199.74,671.26,199.73Z"/><path class="cls-1" d="M722,199.73h.87c1.2,0,1.79,1,1.79,2.94l-.87,4.84.87,2.94-1.79,28.22v10.66l-.87,5.84.87,3.89-.87,1,.87,6.78q0,29.79,3.59,38.89l-1.8,2q-13.82-6.39-20.64-29.16l-4.47-12.66.88-1q-7.17-12.61-7.17-21.39h-1.8l.92,1v2.89l-1.79,26.27v16.55l-1.8,1.9h-.92l-2.66-2.89v-4.84l-.92-7.78.92-6.83-.92-2.94.92-5.83v-.95l-.92-5.83,1.79-2.94-.87-.95v-4.88L687,232.78l-.92-7.77.92-3.89-.92-7.78,5.38-1.94h.92l2.67,2.94-.88.95v1l13.43,50.55q4.61,14.24,7.18,14.61h.92l-1.8-17.5,1.8-4.88-.92-.95,1.79-16.55-.87-4.84V225l1.79-2.9v-5.83Q719.32,199.74,722,199.73Z"/><path class="cls-1" d="M765.36,189.91h1.31q2.4,0,10.5,22.72h-1.31l3.93,21.29-1.31,1.42v1.43q5.25,29.73,9.14,38.41l-5.2,4.22,3.93,7.12v8.53l-2.62,2.85h-1.31q-8.49-7.12-13.13-32.68l-3.93-2.84H749.61q-8.54,25.28-14.39,29.83l-1.32-1.43h-1.31q0-7.11,5.25-21.29l1.31-8.54h-7.87l-3.94-4.26q0-5.26,17.06-7.12,6.14-26.7,17-42.63V194.13Zm-11.81,59.66V251h6.56l8.44,1.32L764,221.69Z"/><path class="cls-1" d="M834.3,203.62q13.47,0,23.27,14.42l-.35,15.46q-.44,7.81-8,17.92,15.36,20.68,29,36.23,8.7,13.38,4.37,21.49l-4.11-1.43q5.2-8.2-5,2.09-25.54-44.3-29-50.74H843v.85l.79,5.12v.86l-.79.85,1.58,5.12v8.54l.78,10.24-.78.86h-2.37q-2.35,0-3.15-10.25-1.56,0-2.36-14.51h.79l-.79-.85V255.64l.79-.8V254a4.7,4.7,0,0,1-4.72-3.41L834.3,248v-2.56q-5.5-2.23-5.51-4.27v-.86l1.57-1.7h2.37l3.93,2.56v-1.71l-1.57-8.54.79-2.56q-1.75-20.48-4.73-20.48v-1.71ZM843,220.69l-.79,6.83.79,5.12-.79,7.68h1.58q7.88-.84,7.87-8.48l-1-10.25A30.78,30.78,0,0,1,843,220.69Zm1.58,26.46V248h1.57v-.86Zm0,0V248h1.57v-.86Zm24.1,40.5,2.28,4.08,6.38,7.12-5.2-12.52,1.57,7.25Z"/><path class="cls-1" d="M931.74,195.56l1,1-1.88,3,.91,1v2q0,2-7.43,2l-19.51,7-4.64,4-2.76,25.18h.92l12.08-4,2.8,4v1Q909.12,248,897.4,248h-1v6l-2.75,25.19,18.54-10.06,9.32-2,.92,1.05v3q-3.72,12.11-16.71,12.1,0,2.22-17.67,8.06h-1.84l-2.8-3,2.8-4v-4l-1-5,1-6v-1l-1-4L887.17,253l-.92-7.07q1.57,0,6.47-28.17v-1c-1.83,0-2.75-.67-2.75-2a8.19,8.19,0,0,0,2.75-6Q923.4,195.57,931.74,195.56Z"/><path class="cls-1" d="M961.25,189.91h1.31q2.41,0,10.5,22.72h-1.31l3.94,21.29-1.32,1.42v1.43q5.25,29.73,9.15,38.41l-5.21,4.22,3.94,7.12v8.53l-2.63,2.85h-1.31q-8.49-7.12-13.12-32.68l-3.94-2.84H945.5q-8.52,25.28-14.39,29.83l-1.31-1.43h-1.31q0-7.11,5.24-21.29l1.32-8.54h-7.88l-3.93-4.26q0-5.26,17.06-7.12,6.12-26.7,17-42.63V194.13Zm-11.81,59.66V251H956l8.44,1.32-4.55-30.63Z"/><path class="cls-1" d="M1016,194.84q26.52,6.12,26.51,10.25v2l-6.65,22.57q0,18.26-29.31,53.35-5.37,8.2-11.37,8.21l-1.88-2v-2.09l3.8-4.08-1-5.12V248.15l-1-5.12h1L994.3,239q.91-15.42,2.84-15.41l-1-1V209.17l1-1-1-1V204Q996.18,199.17,1016,194.84Zm-12.29,67.68,1,10.29h.92Q1024,254,1027.42,230.75l2.84-13.33c-1.28,0-1.93-2.4-1.93-7.21-1.1-3.41-3.31-5.12-6.6-5.12h-11.37q-6.61,0-6.61,13.33Z"/><path class="cls-1" d="M1075.1,185.69l1,1.14h1.05l7.26-1.14,30.09,1.14h30.1l-4.15,9,8.83-4.31q-1.1-1.75-7.74,4.55l-30.14,3.13-3.11,1.09v7.92l-2.1,12.33v2.28l1,3.36-1,5.65,3.11,54-3.11,2.23-7.26-10.15-5.16-3.37,4.11-38.22-1-1.14,2.06-34.9h-14.52q-2.58,0-3.11-4.46H1073q-5.55,0-7.26-4.5A9.76,9.76,0,0,1,1075.1,185.69Z"/><path class="cls-1" d="M1124.29,183.27l1.84,3V208.5l1,9.11-1,7v4.08h14.92l1.83-2v-22.2c0-5,.94-7.65,2.8-8.06l-.92-1v-6l3.72-4,5.6,4v3l-1.88,24.19v16.17l1.88,2-2.8,5.07v13.09l-.92,1.05,1.84,15.12-3.72,7.07v12.09l-2.8,3-2.8-3V264l-.91-6,.91-5.08v-1l-.91-6.07.91-5h-17.67q0,46.43-4.64,46.43h-1l-2.75-3v-8.06l-1.89-7.07.92-4-.92-3,3.72-50.46v-6.07l3.72-14.13-1.84-2v-2Z"/><path class="cls-1" d="M1184.46,193.8q8.71,1.19,8.71,3.8-1.62,0-5.21,7.54l-5.25,1.89,1.75,23.67-1.75,3.79,1.75,1.9v3.79l-.87,17,.87,2.84-.87,8.49v4.74l6.08-.94,1.75,2.84v.95q-.3,2.7-13.08,7.54l-3.5,4.74-.87-1h-.88l-8.7,3.8-1.75-2.85c0-1.26.87-1.89,2.62-1.89l.88-.95v-.95l-.88-2.85c2.22-2.49,4.53-3.74,7-3.74l-.84-6.64v-2.85l.84-12.28-.84-3.8q1.71-37.17,5.21-44.48h-.87l-.88-.95-.87.95h-.88q-4.5,0-5.21-2.84v-1.85l.88-2.85h-.88l-1.74-1.9c1.19-2.52,2.65-3.79,4.37-3.79l.87.95Z"/><path class="cls-1" d="M1231.51,206.37h.92l7.35,8q-1,2.37-11,7l-9.23,17a33.84,33.84,0,0,1,19.33,6q0,10.19-19.33,29-6,11.71-12,17.93h-.92l-2.75-1.95-1.84,3q-7.4-1.19-7.39-4a260.42,260.42,0,0,1,22.13-30q-8,0-13.82-9,6.39-20.15,12-26Zm-16.58,38.93v3q0,3.56,12,4l1.84-3-10.15-6h-1.84Zm5.52-11v1h2.8v-3h-.92Z"/><path class="cls-1" d="M1334.8,195.56l1,1-1.88,3,.92,1v2q0,2-7.44,2l-19.51,7-4.64,4-2.75,25.18h.92l12.07-4,2.8,4v1q-4.07,6.08-15.79,6.07h-1v6l-2.76,25.19,18.55-10.06,9.31-2,.92,1.05v3q-3.72,12.11-16.71,12.1,0,2.22-17.67,8.06h-1.84l-2.8-3,2.8-4v-4l-1-5,1-6v-1l-1-4,1.88-11.09-.92-7.07q1.58,0,6.48-28.17v-1c-1.84,0-2.76-.67-2.76-2a8.17,8.17,0,0,0,2.76-6Q1326.44,195.57,1334.8,195.56Z"/><path class="cls-1" d="M1355.86,193.8q8.72,1.19,8.71,3.8-1.62,0-5.21,7.54l-5.25,1.89,1.75,23.67-1.75,3.79,1.75,1.9v3.79l-.87,17,.87,2.84-.87,8.49v4.74l6.08-.94,1.75,2.84v.95q-.32,2.7-13.08,7.54l-3.5,4.74-.88-1h-.87l-8.71,3.8-1.75-2.85c0-1.26.88-1.89,2.63-1.89l.87-.95v-.95l-.87-2.85q3.31-3.74,6.95-3.74l-.83-6.64v-2.85l.83-12.28-.83-3.8q1.71-37.17,5.21-44.48h-.88l-.87-.95-.88.95h-.87c-3,0-4.74-.95-5.21-2.84v-1.85l.88-2.85h-.88l-1.75-1.9c1.2-2.52,2.66-3.79,4.38-3.79l.87.95Z"/><path class="cls-1" d="M1360.48,185.69l1,1.14h1l7.27-1.14,30.09,1.14H1430l-4.16,9,8.84-4.31q-1.1-1.75-7.74,4.55l-30.14,3.13-3.11,1.09v7.92l-2.1,12.33v2.28l1.05,3.36-1.05,5.65,3.11,54-3.11,2.23-7.26-10.15-5.16-3.37,4.11-38.22-1-1.14,2.06-34.9H1369.8q-2.58,0-3.11-4.46h-8.31q-5.57,0-7.26-4.5A9.76,9.76,0,0,1,1360.48,185.69Z"/><path class="cls-1" d="M1409.67,183.27l1.84,3V208.5l1,9.11-1,7v4.08h14.91l1.84-2v-22.2c0-5,.94-7.65,2.8-8.06l-.92-1v-6l3.72-4,5.6,4v3l-1.88,24.19v16.17l1.88,2-2.8,5.07v13.09l-.92,1.05,1.84,15.12-3.72,7.07v12.09l-2.8,3-2.8-3V264l-.92-6,.92-5.08v-1l-.92-6.07.92-5h-17.67q0,46.43-4.64,46.43h-1l-2.76-3v-8.06l-1.88-7.07.92-4-.92-3,3.72-50.46v-6.07l3.72-14.13-1.84-2v-2Z"/><path class="cls-1" d="M1496.31,195.56l1,1-1.88,3,.92,1v2q0,2-7.44,2l-19.51,7-4.64,4L1462,240.89h.92l12.07-4,2.8,4v1Q1473.7,248,1462,248h-1v6l-2.76,25.19,18.55-10.06,9.32-2,.91,1.05v3q-3.71,12.11-16.71,12.1,0,2.22-17.67,8.06h-1.84l-2.8-3,2.8-4v-4l-1-5,1-6v-1l-1-4,1.88-11.09-.92-7.07q1.57,0,6.48-28.17v-1c-1.84,0-2.76-.67-2.76-2a8.17,8.17,0,0,0,2.76-6Q1488,195.57,1496.31,195.56Z"/><path class="cls-1" d="M1497.12,203.62q13.47,0,23.27,14.42L1520,233.5q-.43,7.81-8,17.92,15.36,20.68,29.05,36.23,8.7,13.38,4.37,21.49l-4.11-1.43q5.2-8.2-5,2.09-25.54-44.3-29-50.74h-1.58v.85l.79,5.12v.86l-.79.85,1.58,5.12v8.54l.78,10.24-.78.86H1505q-2.35,0-3.15-10.25-1.58,0-2.36-14.51h.79l-.79-.85V255.64l.79-.8V254a4.71,4.71,0,0,1-4.73-3.41l1.58-2.56v-2.56c-3.68-1.49-5.51-2.91-5.51-4.27v-.86l1.57-1.7h2.36l3.94,2.56v-1.71l-1.57-8.54.78-2.56q-1.74-20.48-4.72-20.48v-1.71Zm8.66,17.07-.79,6.83.79,5.12-.79,7.68h1.58q7.88-.84,7.87-8.48l-1-10.25A30.78,30.78,0,0,1,1505.78,220.69Zm1.58,26.46V248h1.57v-.86Zm0,0V248h1.57v-.86Zm24.1,40.5,2.27,4.08,6.39,7.12-5.2-12.52,1.57,7.25Z"/><path class="cls-1" d="M1552.57,278.45q3.23,1.43,3.23,6.12-1.4,13.14-3.23,13.14l-.84-.9q-5.64,12.27-11.28,12.28l-1.62-2.66v-.85a38.86,38.86,0,0,0,9.67-14h.83l-.83-.85v-.86L1551,282l-.83-2.65.83-.86Z"/><path class="cls-1" d="M1625.45,189.91h1.31q2.4,0,10.5,22.72H1636l3.93,21.29-1.31,1.42v1.43q5.25,29.73,9.14,38.41l-5.2,4.22,3.94,7.12v8.53l-2.63,2.85h-1.31q-8.49-7.12-13.13-32.68l-3.93-2.84H1609.7q-8.54,25.28-14.39,29.83l-1.31-1.43h-1.32q0-7.11,5.25-21.29l1.31-8.54h-7.87l-3.94-4.26q0-5.26,17.06-7.12,6.13-26.7,17-42.63V194.13Zm-11.81,59.66V251h6.56l8.44,1.32-4.55-30.63Z"/><path class="cls-1" d="M1659.11,203.62q13.47,0,23.27,14.42L1682,233.5q-.43,7.81-8,17.92,15.36,20.68,29,36.23,8.7,13.38,4.37,21.49l-4.11-1.43q5.2-8.2-5,2.09-25.55-44.3-29-50.74h-1.58v.85l.79,5.12v.86l-.79.85,1.58,5.12v8.54l.78,10.24-.78.86H1667q-2.36,0-3.15-10.25-1.57,0-2.36-14.51h.79l-.79-.85V255.64l.79-.8V254a4.7,4.7,0,0,1-4.72-3.41l1.57-2.56v-2.56q-5.5-2.23-5.51-4.27v-.86l1.57-1.7h2.37l3.93,2.56v-1.71l-1.57-8.54.78-2.56q-1.74-20.48-4.72-20.48v-1.71Zm8.66,17.07-.79,6.83.79,5.12-.79,7.68h1.58q7.88-.84,7.87-8.48l-1-10.25A30.78,30.78,0,0,1,1667.77,220.69Zm1.58,26.46V248h1.57v-.86Zm0,0V248h1.57v-.86Zm24.1,40.5,2.27,4.08,6.39,7.12-5.2-12.52,1.57,7.25Z"/><path class="cls-1" d="M1756.55,195.56l1,1-1.89,3,.92,1v2q0,2-7.43,2l-19.51,7-4.64,4-2.76,25.18h.92l12.08-4,2.8,4v1q-4.08,6.08-15.8,6.07h-1v6l-2.75,25.19L1737,269.11l9.32-2,.92,1.05v3q-3.72,12.11-16.71,12.1,0,2.22-17.67,8.06h-1.84l-2.8-3,2.8-4v-4l-1-5,1-6v-1l-1-4L1712,253l-.92-7.07q1.57,0,6.47-28.17v-1c-1.83,0-2.75-.67-2.75-2a8.19,8.19,0,0,0,2.75-6Q1748.21,195.57,1756.55,195.56Z"/><path class="cls-1" d="M1833.15,192.05l2.19,2.42V196q-2.44,0-5.91,25.61l-7.34,20.82,1.44,24v5.59l1.49,5.6-.75.8v.81l.75,2.42,3.67-.81q-4.68,10.39-5.9,10.39-2.67,0-3.68-17.6v-5.59l-1.49-5.6.75-2.42-1.49-21.57q-20.82-23.25-25.07-23.24l-.74-.81v-.76c0-1.07,1-1.61,2.93-1.61v-.81l-2.19-3.22v-.76c0-1.07.73-1.61,2.19-1.61L1804.37,216q5.07,0,11.81,13.61l.7.81h.74a27.79,27.79,0,0,1,4.47-15.22Q1823.22,206.27,1833.15,192.05Z"/><path class="cls-1" d="M1866.82,185.74h2.66q20.83,9.72,33,35.19l2.67,16-.92,1V239l.92,3.18q0,36.53-29.44,46.9a11,11,0,0,0-7.09,2.14q-16.32,0-27.65-18.12l-2.67-9.58,1.8-8.53-.92-6.41.92-3.17-1.8-2.14v-7.49q0-22.86,23.19-46.9Zm-8,19.21V207h4.46l1.79,2.14v1.09q0,2.13-7.13,3.18-8,19.49-8,44.76l2.66,3.23h.88v2.13c-2.36,0-3.54.71-3.54,2.14q1.78,14.88,9.8,14.89l.87-1,8.92,2.14q18.69-2.7,19.6-11.72,5.34-23.56,5.34-38.41v-4.22q0-15.65-16.93-24.52l-8.88-2.13Zm7.13-13.9,1.79,2.14h3.59v-2.14Z"/><path class="cls-1" d="M1917.58,202.53h.92q3.72,0,3.72,35.28v11.1l-.92,7.06c1.84,0,2.76.67,2.76,2V264q0,13.32,10.23,16.12,0-1.47,10.24-5l2.8-8.06-.92-1,.92-7.07V225.72l-1.88-12.1,1-1-2.8-3v-4l1.84-2h1q7.44,0,12.07,47.43l-.91,1,.91,5v17.17q0,13.23-17.67,17.12H1938q-20.43-2.52-20.43-17.12l-5.6-30.26,2.8-4v-2l1.84-19.16-.92-6,.92-1v-1l-.92-6Z"/><path class="cls-1" d="M1981.12,197.64a16.28,16.28,0,0,0,10.15,3.94q3.76,2.61,6.52,14.18l-.74,3.13.74.76q-1.49,27.51-14.52,32.29l-3.63,2.33.74,5.5v6.31l1.44,2.37q0,2.37-2.88,2.37-3.37,0-5.82-14.94v-3.94l.74-.8v-.81l-1.48-1.56V247.2q0-1.75,8.74-2.37,5.78-4.41,8.71-28.31v-2.37q-2.14-7.87-6.56-7.88-4.11,1.62-10.15,7.88l.74.8v.81L1968,225.2c-1.46,0-2.66-2.63-3.63-7.88q6.3-15.73,15.23-15.74l-.7-.81v-1.56C1978.94,198.17,1979.67,197.64,1981.12,197.64Zm3.59,78.68,1.49,1.56v1.57l-3.63,4.74V285l1.44,2.37q-.39,2.48-9.45,3.94l-3.63-3.94q0-5.69,4.38-7.87Q1975.31,277.65,1984.71,276.32Zm-5.77,9.44v.76h1.44v-.76Z"/></g></svg>