<svg xmlns="http://www.w3.org/2000/svg" viewBox="0 0 2000 500"><defs><style>.cls-1{fill:#0d0d0d;}</style></defs><g id="_6" data-name="6"><path class="cls-1" d="M26.1,63.07l5.15,8.5v62.18L34,159.26l-2.7,19.66v11.43H73l5.15-5.72V122.46q0-20.86,7.84-22.59L83.46,97V80.08l10.41-11.3,15.69,11.3v8.5l-5.27,67.75v45.31l5.27,5.58-7.84,14.21V258.1L99.14,261l5.15,42.38L93.87,323.2v33.88L86,365.58l-7.84-8.5V289.19l-2.58-16.87,2.58-14.22v-2.79l-2.58-17,2.58-14.09H28.68q0,130.08-13,130.07H13l-7.72-8.5V323.2L0,303.41l2.57-11.3L0,283.61,10.42,142.25v-17L20.83,85.66l-5.14-5.58V74.36Z"/><path class="cls-1" d="M263.55,97.48l2.69,2.92L261,108.77l2.58,2.93v5.57q0,5.72-20.84,5.72l-54.65,19.66-13,11.29-7.72,70.55h2.57l33.82-11.29,7.85,11.29v2.79q-11.4,17-44.24,17h-2.7v16.87l-7.72,70.55,52-28.17,26.1-5.71,2.58,2.92v8.37Q227.15,343,190.75,343q0,6.24-49.51,22.58h-5.15l-7.84-8.5,7.84-11.29V334.5l-2.69-14.09,2.69-16.87v-2.79l-2.69-11.29,5.27-31.09-2.58-19.8q4.42,0,18.14-78.91v-2.93q-7.72,0-7.72-5.58,7.73-7.44,7.72-16.87Q240.14,97.49,263.55,97.48Z"/><path class="cls-1" d="M365.94,81.67h3.68q6.74,0,29.41,63.64h-3.68l11,59.65-3.67,4v4q14.7,83.29,25.61,107.61l-14.58,11.83,11,19.93v23.91l-7.36,8h-3.67Q390,364.26,377,292.64l-11-8H321.82q-23.9,70.82-40.32,83.57l-3.67-4h-3.68q0-19.92,14.71-59.65l3.67-23.91H270.47l-11-12q0-14.75,47.8-19.93Q324.4,174,354.91,129.36V93.49ZM332.85,248.8v4h18.38l23.66,3.72-12.75-85.83Z"/><path class="cls-1" d="M486.72,120.06q37.74,0,65.19,40.39l-1,43.31q-1.21,21.93-22.3,50.22,43,57.93,81.37,101.51,24.39,37.45,12.26,60.18l-11.52-4q14.58-23-14.1,5.85-71.57-124.08-81.25-142.16H511v2.39l2.21,14.35v2.39L511,296.9l4.41,14.35v23.91l2.21,28.7-2.21,2.39h-6.61q-6.63,0-8.83-28.7-4.41,0-6.62-40.65h2.21l-2.21-2.4V265.81l2.21-2.26v-2.39q-9.68,0-13.23-9.57l4.41-7.17v-7.18q-15.45-6.24-15.44-12V222.9l4.41-4.79h6.62l11,7.18V220.5l-4.41-23.91,2.21-7.17q-4.9-57.4-13.24-57.4v-4.78ZM511,167.89,508.78,187l2.2,14.35-2.2,21.53h4.41q22-2.4,22.06-23.79l-2.82-28.69A86.29,86.29,0,0,1,511,167.89ZM515.39,242v2.39h4.42V242Zm0,0v2.39h4.42V242Zm67.53,113.46,6.37,11.42,17.89,19.93L592.6,351.77,597,372.09Z"/><path class="cls-1" d="M828.27,91.5,832.44,96l-2.09,11v29L813.93,287.6l2.08,2.26v2.25a390.23,390.23,0,0,0-6.25,69l-12.25,4.51-2.08-2.26V330l2.08-8.9-2.08-9,4-13.28V265.28l8.21-89.15V174h-2q-20.6,111.34-34.93,111.34h-4.16q-26.73-94.47-26.72-124.75h-4.17l2.09,22.32-4.05,37.86v15.54l6.13,82.51-6.13,4.38H731.7l-6.13-6.64,2-2.26V312q-6.12-2.12-6.12-13.28V129.36Q722.63,116,727.53,116l-2-2.13V109.3l6.13-6.64q18,0,30.76,107a123.35,123.35,0,0,1,10.29,35.6h4.17q9.68-62.29,16.42-62.3l-2.08-2.26v-2.26l14.46-44.51Q809,131.63,816,98.14Z"/><path class="cls-1" d="M864.8,194.17a16.19,16.19,0,0,1,6-1.09c2.34,0,3.85.36,4.52,1.09s8.2,1.63,22.59,2.72q64.5,3.81,69,8.43a6.6,6.6,0,0,1,1.51,4.63c0,3.26-1.1,5.17-3.27,5.71q-3.26,1.09-18.82,2.45T920,219.47q-28.87,0-37.9-4.9l-3.27-1.9,2.26,12q2.5,13.34,3.27,38.36l.75,26.13,7,.27a164.69,164.69,0,0,1,36.89,6c3.18.91,5.1,2.55,5.77,4.9a8.85,8.85,0,0,1,.25,2.45q0,4.08-7,6t-30.62,4.89l-13.56,1.64-.75,5.17a84.71,84.71,0,0,0-1,14.69,203.5,203.5,0,0,1-1.26,22.31q-1,9.79-1,11.7c0,.91.08,1.36.25,1.36q1.5,1.63,32.63,3.81,4.75.27,18.57,2.18a210.58,210.58,0,0,0,26.85,1.36q10.55,0,13.68.54a8.4,8.4,0,0,1,4.9,2.45c1.5,1.63,2.26,3,2.26,4.08a8.26,8.26,0,0,1-1.51,3.81q-1.26,1.64-5.14,2t-18.45.41H935.58q-30.37-.27-40.41-1.36t-11.3-4.35a3.62,3.62,0,0,0-3.51-1.91c-1.84,0-3.1,1.63-3.76,4.9q-1.26,7.35-6,7.35a6.1,6.1,0,0,1-2-.28q-3.25-.81-4-4.62a34.8,34.8,0,0,0-3.26-8.44q-2.52-4.35-.76-7.62,1.26-2.71,1.26-8.7,0-1.63-.5-12-.51-9.53-1.51-86.26-.51-41.89-.5-46.25,0-12.79.62-18.37t1.51-6.8A8,8,0,0,1,864.8,194.17Zm7.28,97.68q1-4.64,1-19.32,0-17.68-1-17.69a3.15,3.15,0,0,0-.5.82q-.76,2.45-.76,23.94.25,15.24.5,15.24C871.49,294.84,871.74,293.84,872.08,291.85Z"/><path class="cls-1" d="M1167,87.65l6.13,6.77v4.39q-6.87,0-16.3,71.74l-20.34,58.32,4.16,67.23v15.68l4.05,15.67-2.09,2.26V332l2.09,6.78,10.17-2.26q-13,29.08-16.3,29.09-7.48,0-10.17-49.29V300.62l-4-15.68,2-6.78-4-60.45q-57.48-65.09-69.12-65.1l-2.08-2.25v-2.13q0-4.51,8.09-4.52v-2.25l-6-9v-2.13c0-3,2-4.51,6-4.51l28.55,29.09q14,0,32.6,38.13l2,2.26h2.08a79.73,79.73,0,0,1,12.14-42.65Q1139.63,127.51,1167,87.65Z"/><path class="cls-1" d="M1296,157.16a4.44,4.44,0,0,1,3.52-1.9q2.51,0,4.64,3a12.85,12.85,0,0,1,2.13,7.62v4.9l3.77-4.36q3.51-4.35,5.52-4.35,1.76,0,3.89,2.31a6.82,6.82,0,0,1,2.14,4.49,4.4,4.4,0,0,1-.13.82,5.8,5.8,0,0,0-.13,1.36q0,9.79,5.4,57.14t6.9,49.25q1,1.36,13.56,3,12.54,1.9,14.3,4.35a5.85,5.85,0,0,1,1.51,3.54q0,1.37-2.51,4.08t-14.06,2.72q-11.3,0-11.29,2.18a53.43,53.43,0,0,0,.63,6.12c.41,3,.71,5.4.87,7.21q1,10.06,5,35.64t6.28,36.46q2,9.52,2,11.16a6.26,6.26,0,0,1-2,4.08,5.12,5.12,0,0,1-3.77,1.91c-2.51,0-4.26-1.64-5.27-4.9q-2.51-7.35-12.17-43.94t-13.18-52.11l-1-4.08-26.1,1.09q-26.12,1.1-26.86,1.36-1,.54-8.28,21.22-7,20.14-10.29,24.22-3.52,4.35-9,21.22-7.53,21-11.29,28.43t-7.28,7.49a5.91,5.91,0,0,1-2.76-.82q-2.51-1.1-2.51-4.35t2.51-8.71q2.76-5.44,12.8-33.2,9-25.31,16.06-40.81,1.26-2.72,2.76-6.39t2.26-5.31l.51-1.63q-3,0-15.82,1.63-17.57,1.91-21.58,1.91-6,0-8-1.5t-2-5q0-6,11.54-6,10.55,0,10.55-4.35,0-3.81,4.39-5.31c2.92-1,8.15-1.59,15.68-1.77l14.06-.27,14.31-30.75q13-28.56,21.08-43.8l7-12.79-1-15.78c-.34-5.81-.5-9.25-.5-10.34Q1294.76,159.07,1296,157.16Zm13.56,118.09q-7-44.34-8.28-50.88l-2-12.52L1290,230.08q-6.52,12.79-13.68,28.84t-7.15,17.42l20.58,1.09,20.33.54Zm3.76-57.14q0-.81-.5-8t-1.25-12.92c-.51-3.81-1.09-5.71-1.76-5.71-.5,0-.75,1.08-.75,3.26q0,9,3.26,22.58l1.76,8.44Zm1,12.52c0,1.27.08,1.9.25,1.9l.5-2.72v-1.09A3.82,3.82,0,0,0,1314.34,230.63Zm1,8.43c0,1.27.33,1.59,1,.95a1.29,1.29,0,0,0,0-2C1315.84,238,1315.5,238.34,1315.34,239.06Z"/><path class="cls-1" d="M1384.25,70q14.84,0,39,19,23.41,6.9,23.41,40.12l2,48.62-3.92,16.88,2,2.12v2q-6.74,24.84-25.37,40.12h-9.68v4.25l9.68,86.62-1.84,2.13h-3.92l-2-2.13h-2V334l7.84,27.37-5.88,4.25q-8.7,0-21.45-57l-7.84-57,2-8.5q-3.8,0-3.8-12.62-7.85,0-7.84-6.38v-4.25l7.84-2.13-2-8.37,2-6.37-2-16.88,2-14.74-3.92-4.25,3.92-6.38v-2.13l-3.92-8.37,2-10.63-2-23.11v-17l3.92-6.24V84.72l-3.92-6.24V76.36Zm15.69,27.5,3.8,48.49-1.84,2.13v2.12l3.8,19-2,2.13,3.92,44.37q5.88,0,23.41-33.88l3.92-19Q1423.71,97.48,1399.94,97.48Zm11.64,128.74,2,2.12h2q5.4,0,13.61-14.74v-2.13h-2Z"/><path class="cls-1" d="M1499.43,157.43a4.9,4.9,0,0,1,3.77-2.17c1.16,0,2.42.72,3.76,2.17q1.76,1.63,1.76,5.45,0,.81-.51,7.89l-.75,10.88,4.27-2.72q5-3.27,15.18-6a70,70,0,0,1,17.7-2.72q13.29,0,28.61,6.26a100.11,100.11,0,0,1,27.61,16.87q18.32,15.51,18.32,45.17a77,77,0,0,1-4.27,25q-4.77,14.43-17.57,25.58-19.83,17.42-63.49,17.95-13.07.29-15.19.55c-1.42.18-2.13.91-2.13,2.17q0,1.36,2,19.87,2,18.22,2,26.12,0,10.6-2.76,13.06c-1.17,1.27-2.09,1.9-2.76,1.9a8.3,8.3,0,0,1-3.51-1.63,9.27,9.27,0,0,0-3.52-1.36c-1.17,0-1.75,1.27-1.75,3.81a26.66,26.66,0,0,1-1.63,9.11c-1.09,3-2.22,4.67-3.39,5a7.54,7.54,0,0,1-2.26.54q-4.77,0-6.78-9.79-2.25-12-4.52-43.81t-2.51-55.78v-7.62q0-37.27,5-58.22,1.75-6.81,4.52-29.39Q1497.17,159.89,1499.43,157.43Zm1.76,134.14q0-13.05-.76-13.06a1,1,0,0,0-1,.82q-1,1.1-1,12,0,13.62,1.25,13.61Q1501.2,304.91,1501.19,291.57ZM1569.71,189q-7.53-3.81-20.08-4.08h-3.52q-18.06,0-28.36,6.53a42.51,42.51,0,0,1-4.77,2.44q-1.26.83-3.64,5a38.49,38.49,0,0,1-3.13,5q-1,1.09-1.76,5.17c-.34,2.18-.38,3.5-.13,4s1.3.68,3.14.68c2.51,0,4.18.81,5,2.45q.75,1.36.75,15.78,0,10.06-.25,16-.26,6.26-.25,18.23,0,14.14.5,19.59l1,7.89,6.52-2.45a140.67,140.67,0,0,0,43.8-23.4q20.7-16,25.48-30.74a47.11,47.11,0,0,0,2.76-15Q1592.8,200.7,1569.71,189Zm37.14,51.42v-4.9q0-13.59-1.5-13.6-.51,0-1.26,6-3,32.1-46.93,60.13l-8.79,6,5.77-1.08q19.08-2.73,30.37-9.8,13-8.43,18.58-21.5Q1606.09,254.58,1606.85,240.42Z"/><path class="cls-1" d="M1691.59,92.56Q1716,95.89,1716,103.19q-4.53,0-14.58,21.13l-14.71,5.31,4.9,66.3-4.9,10.62,4.9,5.32V222.5l-2.45,47.69,2.45,8L1689.14,302v13.28l17-2.66,4.9,8v2.66q-.86,7.57-36.64,21.13l-9.81,13.28-2.45-2.66h-2.45l-24.39,10.63-4.9-8q0-5.31,7.35-5.31l2.46-2.66V347l-2.46-8q9.32-10.49,19.49-10.49l-2.33-18.6v-8l2.33-34.41L1655,256.91q4.79-104.16,14.59-124.62h-2.46l-2.45-2.66-2.45,2.66h-2.45q-12.62,0-14.58-8v-5.19l2.45-8h-2.45l-4.9-5.31q5-10.63,12.25-10.63l2.45,2.66Z"/><path class="cls-1" d="M1837.62,109.17h2.45q5,0,5,8.24L1842.64,131l2.45,8.24-5,79.05v29.89l-2.45,16.34,2.45,10.89-2.45,2.79,2.45,19q0,83.45,10,108.94l-5,5.58q-38.73-17.93-57.84-81.7l-12.5-35.48,2.45-2.79q-20.1-35.32-20.1-59.91h-5l2.57,2.79v8.1l-5,73.6v46.37l-5,5.31H1742l-7.48-8.1V346.32L1732,324.53l2.57-19.13-2.57-8.24,2.57-16.34v-2.66L1732,261.82l5-8.24-2.45-2.65V237.24l5-35.47L1737,180l2.57-10.89L1737,147.3l15.08-5.45h2.57l7.47,8.24-2.45,2.66v2.79l37.63,141.62q12.87,39.85,20.09,40.92H1820l-5-49,5-13.69-2.58-2.65,5-46.37L1820,212.8V180l5-8.1V155.54Q1830,109.18,1837.62,109.17Z"/><path class="cls-1" d="M1950.42,88.58h6.87q24.38,0,38.36,36.8v4.91l-9.07,17.14h-6.74q-14.1-29.49-24.88-29.49-19.37,0-38.48,39.32-12.37,0-22.55,49l-2.21,2.39,2.21,12.22-2.21,2.53v2.39q9,60.84,27.09,93.13l4.53,14.75h6.74v-2.39l-6.74-14.75,2.21-2.39h2.33q18,18.74,18,29.36h4.53q3.81,0,20.35-24.58l-2.21-2.39v-4.92q4.53-4.9,11.28-41.71h-4.54l-42.89,9.83q-13.61-4.92-13.6-9.83V265q.12-10.1,65.56-14.61,0-7.44,4.54-7.44h2.2q5.4,0,6.86,17.27-4.53,7.31-6.86,29.36l2.33,2.39v2.52l-2.33,7.31,4.54,9.83q0,25.11-49.76,53.94h-6.74q-13.85,0-38.48-24.58-27.09-8.62-27.08-44.1l-4.54-22.06,6.74-56.33-2.2-9.83q0-39.19,13.6-39.19,24.13-68.68,38.36-68.69Q1925.55,94.83,1950.42,88.58Z"/></g></svg>