<svg xmlns="http://www.w3.org/2000/svg" viewBox="0 0 2000 500"><defs><style>.cls-1{fill:#ed1e79;}</style></defs><g id="_7" data-name="7"><path class="cls-1" d="M81.45,153.63h2l16.23,17.7q-2.11,5.25-24.35,15.4L55,224.23a74.89,74.89,0,0,1,42.7,13.3q0,22.53-42.7,64Q41.74,327.4,28.5,341.13h-2l-6.08-4.3-4.06,6.6Q0,340.82,0,334.63,17.49,306,48.89,268.43q-17.58,0-30.53-19.9,14.1-44.52,26.47-57.4Zm-36.62,86v6.6q0,7.85,26.48,8.8l4-6.6L53,235.23H48.89ZM57,215.33v2.2h6.18v-6.6h-2Z"/><path class="cls-1" d="M231.65,129.75l2.13,2.3-4.16,6.6,2,2.31v4.4q0,4.5-16.42,4.5l-43.1,15.5-10.24,8.91-6.09,55.62h2L184.5,221l6.18,8.91v2.2q-9,13.41-34.88,13.4h-2.12V258.8l-6.09,55.62,41-22.21,20.58-4.5,2,2.3v6.6q-8.22,26.72-36.91,26.71,0,4.92-39,17.81h-4.05L125,334.42l6.19-8.9v-8.9L129,305.51l2.13-13.3V290l-2.13-8.9,4.15-24.51-2-15.61q3.47,0,14.3-62.22v-2.3q-6.09,0-6.09-4.4,6.09-5.87,6.09-13.31Q213.2,129.75,231.65,129.75Z"/><path class="cls-1" d="M335.09,129.75l2.12,2.3-4.15,6.6,2,2.31v4.4q0,4.5-16.43,4.5l-43.09,15.5-10.24,8.91-6.09,55.62h2L287.94,221l6.18,8.91v2.2q-9,13.41-34.88,13.4h-2.13V258.8L251,314.42l41-22.21,20.58-4.5,2,2.3v6.6q-8.21,26.72-36.91,26.71,0,4.92-39,17.81H234.6l-6.18-6.71,6.18-8.9v-8.9l-2.13-11.11,2.13-13.3V290l-2.13-8.9,4.16-24.51-2-15.61q3.48,0,14.3-62.22v-2.3q-6.09,0-6.09-4.4,6.09-5.87,6.09-13.31Q316.63,129.75,335.09,129.75Z"/><path class="cls-1" d="M482.44,142.11q8.79,0,13.43,60.12,9.57,0,9.56,58,3.78,0,5.7,37.29,3.11,0,9.57,39.39l-5.7,4.19h-1.93q-17.1-18.33-38.26-68.4l-1.94-2.1-9.56-16.55-44,78.77h-3.86q-2.81,0-5.7-8.27l1.93-39.39V283.1l-1.93-20.74,1.93-2.1h1.93l-1.93-2.09,3.77-22.73-1.84-2.1,3.77-24.93L415.48,198l13.43-47.66,1.93-2.09h1.93l5.71,6.28q-3.3,0-13.44,124.34H427l28.69-47.66-3.86-12.47,5.8-2.09,7.63,4.19-5.89,9.53,3.57-5.45,2.32,2.52,6.57,6.18,1.06,1.78v6.18L492,278.91V268.54l-3.86-8.28,1.93-2.09v-2l-9.56-56h1.93l-7.63-22.84v-4.08l3.86-4.19-1.93-14.46v-6.28Z"/><path class="cls-1" d="M552.44,102.62l4.06,6.7v49l2.13,20.12L556.5,194v9h33l4.06-4.51v-49q0-16.44,6.18-17.81l-2-2.3V116l8.21-8.91L618.24,116v6.7l-4.15,53.42v35.72l4.15,4.4-6.18,11.21v28.91l-2,2.3,4.06,33.42-8.22,15.6v26.71l-6.18,6.71-6.18-6.71V280.9l-2-13.3,2-11.21v-2.2l-2-13.41,2-11.1h-39q0,102.54-10.24,102.54H542.1l-6.08-6.7V307.71l-4.16-15.6,2-8.91-2-6.7,8.21-111.45V151.64l8.22-31.21-4.06-4.4v-4.51Z"/><path class="cls-1" d="M716.94,117.28h2.9q5.31,0,23.19,50.18h-2.9l8.7,47-2.9,3.14v3.14q11.6,65.68,20.19,84.85l-11.5,9.32,8.7,15.71v18.86l-5.8,6.28h-2.9q-18.74-15.71-29-72.17l-8.7-6.28H682.16q-18.84,55.83-31.79,65.88l-2.9-3.14h-2.9q0-15.7,11.6-47l2.9-18.85h-17.4L633,264.77q0-11.62,37.68-15.71,13.53-59,37.59-94.17V126.61ZM690.85,249.06v3.14h14.5L724,255.13l-10-67.67Z"/><path class="cls-1" d="M769.26,108l2.23,2.52h2.32l16-2.52,66.47,2.52H922.8l-9.18,19.9,19.51-9.53Q930.71,117,916,130.9l-66.57,6.91-6.86,2.41v17.5L838,185v5l2.32,7.44L838,209.88l6.86,119.31L838,334.11l-16-22.42-11.4-7.43,9.08-84.43-2.22-2.51,4.54-77.1H789.85c-3.81,0-6.09-3.28-6.87-9.84H764.63q-12.27,0-16-9.95Q755,108,769.26,108Z"/><path class="cls-1" d="M985.89,125.87q19.23,2.63,19.23,8.38-3.57,0-11.5,16.66L982,155.1l3.86,52.27L982,215.75l3.86,4.19v8.38L984,265.92l1.93,6.29L984,291v10.48l13.43-2.1,3.87,6.29v2.09q-.69,6-28.89,16.66l-7.73,10.47-1.94-2.09h-1.93l-19.23,8.38-3.86-6.29q0-4.18,5.8-4.19l1.93-2.09v-2.1l-1.93-6.28q7.34-8.28,15.36-8.28L957,297.24V291l1.84-27.12L957,255.45q3.78-82.12,11.5-98.26h-1.93l-1.93-2.09-1.94,2.09h-1.93q-9.94,0-11.5-6.28v-4.09l1.94-6.28h-1.94l-3.86-4.19q4-8.39,9.66-8.38l1.93,2.09Z"/><path class="cls-1" d="M1106.91,125l3.29,3.56-1.64,8.69v22.84l-13,119.51,1.64,1.78v1.78a307.68,307.68,0,0,0-4.93,54.37l-9.66,3.56-1.64-1.78V313.06l1.64-7-1.64-7.12,3.19-10.48V262l6.47-70.28v-1.68h-1.55q-16.23,87.78-27.53,87.78h-3.29q-21.06-74.48-21.06-98.36H1034l1.65,17.6L1032.42,227v12.26l4.83,65-4.83,3.45h-1.64l-4.84-5.23,1.55-1.78v-1.78q-4.83-1.68-4.83-10.48V154.89q1-10.57,4.83-10.58l-1.55-1.68v-3.56l4.84-5.24q14.19,0,24.25,84.33a97.13,97.13,0,0,1,8.11,28.07h3.29q7.63-49.12,13-49.13l-1.65-1.78v-1.78l11.4-35.09q2.61-1.78,8.12-28.18Z"/><path class="cls-1" d="M1286.54,114.56q10.23,0,15.36,11.1v5.66l-2.51,2.72v2.83q8.4,0,12.85,36.24l-7.73,5.56h-2.61q-8.12,0-12.85-33.42l-2.51-2.83h-2.61l-10.24,13.94v-2.83q-19.82,0-36,64.1-2.52,15.51-10.25,25.14v16.66q6.57,61.38,20.58,61.38,34.41,0,38.56,5.55l28.21-2.83,2.61,2.83v2.83q0,4.6-77.11,25-38.55-19.49-38.55-44.62-6.85-11.94-7.73-44.52V242.77q8.7,0,15.46-36.24,18.16-46.83,46.28-69.66Q1255.71,123.88,1286.54,114.56Z"/><path class="cls-1" d="M1402.92,108.07h5.89q46,21.47,72.86,77.72l5.89,35.3-2,2.3v2.41l2,7q0,80.65-65,103.59-9.75,0-15.65,4.72-36,0-61.06-40l-5.9-21.15,4-18.86-2-14.14,2-7-4-4.71V218.68q0-50.49,51.21-103.6Zm-17.78,42.42v4.61H1395l4,4.71v2.41q0,4.71-15.75,7-17.68,43-17.68,98.88l5.89,7.12h1.93V280q-7.81,0-7.82,4.71,4,32.9,21.64,32.89l1.93-2.3,19.71,4.71q41.26-6,43.29-25.87,11.79-52.07,11.79-84.85v-9.32q0-34.56-37.4-54.15l-19.61-4.72Zm15.75-30.69,4,4.71h7.92V119.8Z"/><path class="cls-1" d="M1563.55,108.07h5.9q46,21.47,72.85,77.72l5.89,35.3-2,2.3v2.41l2,7q0,80.65-65,103.59-9.76,0-15.65,4.72-36,0-61.07-40L1500.56,280l4-18.86-2-14.14,2-7-4-4.71V218.68q0-50.49,51.21-103.6Zm-17.77,42.42v4.61h9.85l4,4.71v2.41q0,4.71-15.75,7-17.67,43-17.68,98.88l5.9,7.12H1534V280q-7.83,0-7.83,4.71,4,32.9,21.64,32.89l1.94-2.3,19.71,4.71q41.25-6,43.28-25.87,11.79-52.07,11.79-84.85v-9.32q0-34.56-37.39-54.15l-19.61-4.72Zm15.74-30.69,4,4.71h7.92V119.8Z"/><path class="cls-1" d="M1685.93,115.08h2.12l6.19,6.71q-7.83,30.79-12.37,100.76h2q6.66-4.19,41.25-62.63l35.08-40.33h2.12l4.16,4.5v2.2l-53.72,89.56q0,13.31,49.56,60.33,22.71,20.54,22.71,24.62,0,6.6,12.37,15.71,0,5.24-14.5,6.71-40.29-19.17-92.85-76.05l-8.21,8.9V274l6.18,35.82-2.12,2.2h-2l2,15.71q0,11.63-6.19,13.41h-4.06q-12.45-4.1-12.46-51.43l2.13-11.21v-2.31l-4.16-17.8,4.16-4.51v-9l4.05-60.34V146.4q8.31-7.64,10.34-26.81Zm41.35,85.06,4.06,4.5v2.2q0,5.13-10.24,6.71Q1723.8,200.14,1727.28,200.14Z"/><path class="cls-1" d="M1860.09,125.87q19.23,2.63,19.23,8.38-3.58,0-11.5,16.66l-11.6,4.19,3.87,52.27-3.87,8.38,3.87,4.19v8.38l-1.93,37.6,1.93,6.29L1858.16,291v10.48l13.43-2.1,3.86,6.29v2.09q-.67,6-28.89,16.66l-7.73,10.47-1.93-2.09H1835l-19.23,8.38-3.86-6.29q0-4.18,5.79-4.19l1.93-2.09v-2.1l-1.93-6.28q7.35-8.28,15.37-8.28l-1.84-14.66V291l1.84-27.12-1.84-8.38q3.77-82.12,11.5-98.26h-1.94l-1.93-2.09-1.93,2.09H1835q-10,0-11.5-6.28v-4.09l1.93-6.28h-1.93l-3.87-4.19q4-8.39,9.67-8.38l1.93,2.09Z"/><path class="cls-1" d="M1975.22,139h1.93q4,0,4,6.49l-1.93,10.69,1.93,6.49-4,62.32v23.57l-1.93,12.89,1.93,8.58-1.93,2.21,1.93,15q0,65.79,7.92,85.9l-4,4.39q-30.54-14.13-45.61-64.41l-9.85-28,1.93-2.2q-15.84-27.87-15.84-47.24h-4l2,2.2v6.39l-4,58v36.55l-4,4.19h-2l-5.89-6.39V325.94l-2-17.18,2-15.08-2-6.5,2-12.88v-2.09l-2-12.89,4-6.49-1.93-2.1V239.94l4-28-2-17.18,2-8.59-2-17.18,11.88-4.3h2l5.9,6.5-1.94,2.09v2.2l29.67,111.66q10.14,31.43,15.84,32.27h2l-4-38.66,4-10.79-2-2.09,4-36.56-1.93-10.68V194.8l4-6.39V175.52Q1969.22,139,1975.22,139Z"/></g></svg>