<svg xmlns="http://www.w3.org/2000/svg" viewBox="0 0 800 300"><defs><style>.cls-1{isolation:isolate;}.cls-2{fill:#fff;mix-blend-mode:multiply;}</style></defs><g class="cls-1"><g id="CIRCLE"><path class="cls-2" d="M6.15,115.41c.24.39.46.79.67,1.19A4.94,4.94,0,0,1,6.15,115.41Zm790.13,34.51C802,161.06,801,171.33,794,181.75c-7.74,11.47-18.42,19.09-30.24,25.47a21.18,21.18,0,0,0-6.91,6.23,60.58,60.58,0,0,1-10.9,11.66c-1.24-.07-2,.91-2.88,1.47-2.89,1.76-5.61,3.86-8.62,5.36a186.82,186.82,0,0,1-33.24,12.45A186.43,186.43,0,0,1,680.38,249c-7.33,1.19-14.77,1.82-22,3.37-11.72,2.52-23.39,5.21-35.27,7A374.06,374.06,0,0,1,585,263.14c-8.71.45-17.44.83-26.19.66-7.12-.14-14.23-.18-21.35-.47-5.6-.22-11.22,0-16.82-.09-.68,0-2.15.25-1.9-.55,1.13-3.57-1.9-5.05-3.58-6.77-2.07-2.12-4.28-4.44-8.11-4-4.86.61-9.81.31-14.72.47-12.53.4-25.08.54-37.61,1.11-7.71.36-15.42-.17-23.14.45-7.26.58-14.59.41-21.86.45-23.51.16-47,.56-70.54-.24-12.62-.44-25.25-.3-37.87-1-9.8-.54-19.6-1.12-29.4-1.55-11-.48-21.92-1.69-32.9-2.12-2-.07-1.94-.61-.66-1.8-3.73-.44-7.24-.83-10.75-1.26-7.2-.87-14.45-1.43-21.57-2.71-10.28-1.84-20.63-3.22-30.89-5.3-16.84-3.42-33.64-7-49.45-13.86-11.57-5.06-22.5-11.34-31.57-20.4-.54-.54-.92-1.47-2.19-1.26.9,2.54,3.8,3.37,5.35,5.9a1.82,1.82,0,0,1-.14.19h0c-2-.77-2.53-2.78-4.36-2.79A49,49,0,0,1,83.37,195C79.05,188.24,73.93,182,71,174.33c-3.8-9.85-3-19.12,3.33-27.67,1.5-2,1.82-3.36.26-5.69-4-5.91-8.27-11.62-11.33-18.09a44.44,44.44,0,0,1-3-8.36c0-1.59-1.16-1.16-2-1-2.73.58-5.47,1.18-8.17,1.91-7.52,2-15.32,3.16-22.52,6.27-4.15,1.8-8.74,2-12.85,3.85-1.27.58-1.87-.14-1.8-1.5,0-1,0-2.56-.78-2.81-2.38-.75-2.14-4-4.67-4.48-.28,0-.49-.64-.66-1a16.5,16.5,0,0,0-3.36-4.59,8.81,8.81,0,0,1-2.73-6.36c.06-1.71.56-2.6,2.5-1.62,2.17,1.09,3,.53,3.53-2l1-1c2.42-.2,5,0,7.23-.66,12-3.48,24.1-6.25,36.22-9.09,5.19-1.21,10.76-1.58,15.5-3.77,5.5-2.53,10.12-6.88,15.47-9.92a209.36,209.36,0,0,1,28-11.24c7.54-2,15-4.23,22.62-6a699.24,699.24,0,0,1,77.28-13.11q43.89-5.2,88-7.75c20.34-1.19,40.72-1.77,61.1-2,29.47-.26,58.94-.34,88.41.13,42.29.67,84.5,2.55,126.51,7.87,21,2.65,41.8,6.23,62.49,10.59,5.79,1.22,11.49,2.9,17.39,3.64,18.69,4.76,37.17,10.22,55,17.74a210.27,210.27,0,0,1,54.68,33.09c8.74,7.4,15.59,16.5,22.55,25.5C789.87,140,793.52,144.6,796.28,149.92ZM100.39,127.26c15.37-6.28,31.38-10.49,47.43-14.59,31.35-8,62.65-16.16,94-24.26l15.69-4-.09-.42c-1.58.08-3.18.1-4.76.26-9.54.92-19.09,1.82-28.64,2.81-44.19,4.62-88.07,11.35-131.7,19.77a5.32,5.32,0,0,0-4,2.82c-4,7.22-2.27,14.29.48,21.32.49,1.27,1.52,1,2.56.5C94.36,130,97.33,128.51,100.39,127.26Zm237.42,103c-1.29-1.06-2.73-1-4.1-1.23-18.22-3.53-36.41-7.18-54.47-11.49Q255,211.79,230.79,205.7c-8.19-2.06-16.3-4.47-24.46-6.64-17.16-4.58-34.25-9.43-51.09-15.06-17.6-5.87-34.93-12.52-51.18-21.63a4.1,4.1,0,0,0-5.46,1.45A23.36,23.36,0,0,0,95,178.07c.3,3.92.46,8.06,4.69,10.24L115.86,199c1.85,2.06,4.38,3.08,6.78,4.23,11.77,5.61,24.44,8.51,37,11.52,10.4,2.49,21,4.45,31.58,5.95,10.44,1.48,20.87,3.09,31.34,4.3,11.23,1.3,22.51,2.28,33.8,3.07,8.77.62,17.56,1,26.33,1.53,7.1.4,14.2.8,21.3,1,8,.2,15.92,1,23.9.61.83,0,1.73.19,2.48-.34,1.48-1,3.05-.78,4.63-.42A3.47,3.47,0,0,0,337.81,230.3Zm394-66c-.52-.4-1.53-1.08-1.08-1.47,2.13-1.82-.23-2-.91-2.49a312.61,312.61,0,0,0-30.24-18.15c-7.22-3.7-14.64-7-22-10.44-14.4-6.64-29.21-12.14-44.14-17.39-12.22-4.3-24.57-8.15-37.11-11.42q-15.69-4.08-31.58-7.23c-11.16-2.2-22.32-4.47-33.6-6-6.6-.88-13.17-1.89-19.77-2.76-5.76-.77-11.52-1.65-17.31-2.06-4.63-.33-9.29-2.9-13.95-.06a1.8,1.8,0,0,1-1,0c-4.44-.61-8.93-.67-13.38-1.1-9-.87-18-1.55-27.05-2-6.08-.29-12.19-.41-18.23-1.12-7.39-.87-14.74-.26-22.06.29-7.65.58-15.25,1.82-22.85,2.89Q357.76,86.37,340.13,90c-18.29,3.76-36.46,8.08-54.62,12.42-14.88,3.56-29.65,7.58-44.47,11.39q-24.56,6.31-49.11,12.64c-18,4.66-36,9.29-54,14.14a112.8,112.8,0,0,0-19.2,6.6c-.59.27-1.53.4-1.56,1.15,0,.93,1,1,1.66,1.32,3.47,1.58,6.92,3.23,10.47,4.6,12,4.59,24.09,9,36.41,12.77q23.69,7.22,47.58,13.63c17.29,4.69,34.71,8.94,52.11,13.2,11.4,2.79,22.85,5.36,34.31,7.86,9.57,2.09,19.17,4,28.78,5.86,11.19,2.14,22.41,4.08,33.66,5.89,8.58,1.38,17.16,2.71,25.77,3.87,7.1,1,14.17,2.23,21.34,2.74,5.3.38,10.58,1,15.87,1.58,7.56.8,15.09,1.71,22.65,2.41,6.9.65,13.82,1,20.72,1.61,9.93.81,19.85,2,29.8,2.37,8,.28,16.08,1,24.15.66,9.56-.2,19.12-.49,28.68-.95,7.19-.35,14.37-.63,21.55-1,9.21-.5,18.41-.9,27.61-1.56,8.59-.62,17.2-.94,25.76-2a282.34,282.34,0,0,0,31.66-5.49c15.46-3.77,30.73-8.19,45.86-13.09,6.58-2.13,12.94-5,17.54-10.29,5.26-6,10.35-12.26,13.35-19.89C736.65,168.86,736.48,167.89,731.85,164.29Zm40.38-18.71a24,24,0,0,0-5.17-8c-3.6-3.9-7.72-7.23-11.61-10.81-.28-1.27-1.88-1.62-2.2-3.19,3.28,1.12,4.87,4.41,8.36,5.83a11.8,11.8,0,0,0-2.45-2.68c-3.84-3.65-8.52-6.07-12.9-8.93-10.28-6.73-20.78-13.09-32-18a356.16,356.16,0,0,0-51.33-17.44c-16.24-4.28-32.73-7.4-49.2-10.56-1.44-.28-3.11-1.24-5.36,0,2.75.53,4.88.88,7,1.38,3.66.86,7.6.92,10.91,2.92a24.72,24.72,0,0,0,9,3.17h0l11.22,3h0A119,119,0,0,0,658.12,86c1.89.73,3.78,1.49,5.68,2.2,14.23,5.35,28.17,11.29,41,19.64,9.15,6,18.69,11.37,26.79,18.83,2.83,3.56,6.17,6.68,9,10.28,6,7.74,12.31,15.29,17.24,23.84,1.94,3.36,2.88,7,4.15,10.62.4,1.13.83,2.48,2.08.82,2.89-3.86,6.15-7.5,7.85-12.11C773.62,155.32,774.38,150.47,772.23,145.58ZM681.7,249.16c-6.55,1.19-13.17,2-19.76,3-7.07,1-13.92,3-20.88,4.51-7.55,1.6-15.18,2.64-22.79,3.78-14.17,2.12-28.45,2.9-42.76,3.41-10.19.36-20.38.34-30.56.12-8.14-.17-16.29.14-24.43-.39-1.54-.1-2.8-.07-2.13-2.2a1.72,1.72,0,0,0-.49-1.66c-2.29-2.31-4.38-4.82-6.87-6.93a2.37,2.37,0,0,0-1.7-.37c-7.46.25-14.93.22-22.39.43-14,.4-28,.91-42,1.08-5.59.06-11.18.32-16.78.42-10.77.19-21.54.43-32.32.62-11.46.2-22.92.22-34.38.12q-16.41-.15-32.83-.49c-12.88-.26-25.75-.82-38.61-1.47-13.71-.69-27.41-1.45-41.08-2.57-3.47-.29-6.93-.49-10.39-.77-.42,0-1,.14-1.22-.16-1.4-2.26-3.75-1.59-5.72-1.86-18-2.4-36.06-4.52-53.91-8-13.1-2.56-26-5.63-38.85-9.42-12.29-3.64-23.36-9.55-34-16.44a54.22,54.22,0,0,1-7.4-5.87.7.7,0,0,1-.11.82,3.78,3.78,0,0,1,.22.33,2.79,2.79,0,0,1-.37-.14c-.82.82-1.31-.24-1.84-.67a12.17,12.17,0,0,0-2.52-2.12,29.67,29.67,0,0,0,5.88,5.54c14.75,10.38,30.49,18.56,48.14,23.11,30.6,7.88,61.7,12.52,93.1,15.33,47.06,4.22,94.26,5.44,141.49,5.29,42.37-.13,84.73-1.78,127.09-2.74,2.85-.06,3.51,2.5,5.55,3.21.14,0,.24.7.11.92-1.26,2.13.51,2.18,1.74,2.49s2.5.81,2,2c-1.18,3,.92,2.51,2.41,2.54,6.79.16,13.59.21,20.38.33,30.77.54,61.45-.25,91.88-5.64,13.13-2.33,26-5.94,39.22-7.72,20.43-2.74,40.39-7.45,59.18-16.28a61.18,61.18,0,0,0,14.91-9.55,104.5,104.5,0,0,1-25.77,13.63A226.45,226.45,0,0,1,681.7,249.16ZM95.22,205.9l-1-1A7.19,7.19,0,0,0,95.22,205.9Zm639.18,26a186.82,186.82,0,0,1-33.24,12.45A186.43,186.43,0,0,1,680.38,249c-7.33,1.19-14.77,1.82-22,3.37-11.72,2.52-23.39,5.21-35.27,7A374.06,374.06,0,0,1,585,263.14c-8.71.45-17.44.83-26.19.66-7.12-.14-14.23-.18-21.35-.47-5.6-.22-11.22,0-16.82-.09-.68,0-2.15.25-1.9-.55,1.13-3.57-1.9-5.05-3.58-6.77-2.07-2.12-4.28-4.44-8.11-4-4.86.61-9.81.31-14.72.47-12.53.4-25.08.54-37.61,1.11-7.71.36-15.42-.17-23.14.45-7.26.58-14.59.41-21.86.45-23.51.16-47,.56-70.54-.24-12.62-.44-25.25-.3-37.87-1-9.8-.54-19.6-1.12-29.4-1.55-11-.48-21.92-1.69-32.9-2.12-2-.07-1.94-.61-.66-1.8-3.73-.44-7.24-.83-10.75-1.26-7.2-.87-14.45-1.43-21.57-2.71-10.28-1.84-20.63-3.22-30.89-5.3-16.84-3.42-33.64-7-49.45-13.86-11.57-5.06-22.5-11.34-31.57-20.4-.54-.54-.92-1.47-2.19-1.26.9,2.54,3.8,3.37,5.35,5.9a.7.7,0,0,0,.11-.82c-.74-.69-1.48-1.4-2.21-2.12a7.19,7.19,0,0,1-1-1l1,1A13,13,0,0,1,96.44,207c.28.31.79.62,1,1a54.22,54.22,0,0,0,7.4,5.87c10.69,6.89,21.76,12.8,34.05,16.44,12.81,3.79,25.75,6.86,38.85,9.42,17.85,3.49,35.9,5.61,53.91,8,2,.27,4.32-.4,5.72,1.86.19.3.8.13,1.22.16,3.46.28,6.92.48,10.39.77,13.67,1.12,27.37,1.88,41.08,2.57,12.86.65,25.73,1.21,38.61,1.47q16.41.33,32.83.49c11.46.1,22.92.08,34.38-.12,10.78-.19,21.55-.43,32.32-.62,5.6-.1,11.19-.36,16.78-.42,14-.17,28-.68,42-1.08,7.46-.21,14.93-.18,22.39-.43a2.37,2.37,0,0,1,1.7.37c2.49,2.11,4.58,4.62,6.87,6.93a1.72,1.72,0,0,1,.49,1.66c-.67,2.13.59,2.1,2.13,2.2,8.14.53,16.29.22,24.43.39,10.18.22,20.37.24,30.56-.12,14.31-.51,28.59-1.29,42.76-3.41,7.61-1.14,15.24-2.18,22.79-3.78,7-1.49,13.81-3.5,20.88-4.51,6.59-.94,13.21-1.79,19.76-3a226.45,226.45,0,0,0,38.43-10.42,104.5,104.5,0,0,0,25.77-13.63c-1.24-.07-2,.91-2.88,1.47C740.13,228.34,737.41,230.44,734.4,231.94ZM96.44,207a13,13,0,0,0-1.22-1.12c.73.72,1.47,1.43,2.21,2.12C97.23,207.64,96.72,207.33,96.44,207Zm-1.11,1.34c.53.43,1,1.49,1.84.67-2-.77-2.53-2.78-4.36-2.79A12.17,12.17,0,0,1,95.33,208.36ZM110.22,65.27a3.12,3.12,0,0,1,.53-.11,311.21,311.21,0,0,1,33.71-8.74c12.44-2.58,24.95-4.74,37.51-6.7,13.46-2.1,27-3.54,40.53-5.15,13.12-1.56,26.28-2.74,39.43-3.88,10.79-.94,21.62-1.6,32.44-2.21,14.47-.82,28.95-1.33,43.43-1.81,7.12-.23,14.25-.26,21.37-.34,19.44-.23,38.89-.69,58.33-.3,12.81.26,25.63,0,38.43.46,11.7.41,23.4.54,35.09,1.06,16.15.72,32.3,1.69,48.4,3.22,9.86.94,19.71,1.85,29.54,3,14,1.64,27.92,3.83,41.81,6.2,14.53,2.49,28.94,5.54,43.27,9-.55-.82-1.49-.75-2.28-.93a763.49,763.49,0,0,0-100.34-16.6c-25.27-2.44-50.59-4.15-76-4.77q-29.67-.73-59.36-1-19.23-.18-38.47.13c-19.27.29-38.55.29-57.82,1.06q-22.91.91-45.75,2.58c-19.81,1.43-39.55,3.43-59.29,5.57q-36.47,4-72.35,11.46A254.09,254.09,0,0,0,110.22,65h0ZM569,43.76c-9.83-1.14-19.68-2-29.54-3-16.1-1.53-32.25-2.5-48.4-3.22-11.69-.52-23.39-.65-35.09-1.06-12.8-.46-25.62-.2-38.43-.46-19.44-.39-38.89.07-58.33.3-7.12.08-14.25.11-21.37.34-14.48.48-29,1-43.43,1.81-10.82.61-21.65,1.27-32.44,2.21-13.15,1.14-26.31,2.32-39.43,3.88-13.52,1.61-27.07,3-40.53,5.15-12.56,2-25.07,4.12-37.51,6.7a311.21,311.21,0,0,0-33.71,8.74,3.12,3.12,0,0,0-.53.11,1.92,1.92,0,0,0,0,.24c7.54-2,15-4.23,22.62-6a699.24,699.24,0,0,1,77.28-13.11q43.89-5.2,88-7.75c20.34-1.19,40.72-1.77,61.1-2,29.47-.26,58.94-.34,88.41.13,42.29.67,84.5,2.55,126.51,7.87,21,2.65,41.8,6.23,62.49,10.59,5.79,1.22,11.49,2.9,17.39,3.64-14.33-3.42-28.74-6.47-43.27-9C596.88,47.59,583,45.4,569,43.76Zm-568,64a8.73,8.73,0,0,1-.56-2.18c-.1-3.15.51-3.65,3.44-2.56,1.82.67,2.47-.35,2.91-1.81-.94,1.27-1.89,1.6-3.57.93-2.38-1-3-.35-3.14,2.23a9.4,9.4,0,0,0,3.4,7.79,14.9,14.9,0,0,1,2.74,3.29,6.29,6.29,0,0,0-1.14-2C3.4,111.71,1.62,110.1.93,107.72Zm57.15,6.16c-9,2.21-17.93,4.31-26.81,6.8A26,26,0,0,0,27,122.4,12.12,12.12,0,0,1,21.23,124c-2.06-.08-3.85,1.21-5.78,1.8-2.16.66-2.55.4-2.82-1.9-.08-.6-.11-1.44-.55-1.63-2.32-1-2.71-3.75-4.68-5.06a2.38,2.38,0,0,1-.58-.56,18.24,18.24,0,0,1,1.06,2.52c.53,1.63,1.15,2.78,2.46,2.83,1.7.07,1.7.91,1.8,2.06.23,2.58.68,2.88,3.22,2.1,1.86-.57,3.87-2,5.51-1.65,2.94.64,4.77-1.1,7-2a40.25,40.25,0,0,1,4.26-1.65c8.46-2.19,16.94-4.29,25.42-6.43.89-.22,1.79-.59,2.64.11C59.75,113.47,59,113.67,58.08,113.88Zm.15-.34c-2.73.58-5.47,1.18-8.17,1.91-7.52,2-15.32,3.16-22.52,6.27-4.15,1.8-8.74,2-12.85,3.85-1.27.58-1.87-.14-1.8-1.5,0-1,0-2.56-.78-2.81-2.38-.75-2.14-4-4.67-4.48-.28,0-.49-.64-.66-1a16.5,16.5,0,0,0-3.36-4.59,8.81,8.81,0,0,1-2.73-6.36c.06-1.71.56-2.6,2.5-1.62,2.17,1.09,3,.53,3.53-2-.44,1.46-1.09,2.48-2.91,1.81-2.93-1.09-3.54-.59-3.44,2.56a8.73,8.73,0,0,0,.56,2.18c.69,2.38,2.47,4,4.08,5.64a6.29,6.29,0,0,1,1.14,2c.24.39.46.79.67,1.19a2.38,2.38,0,0,0,.58.56c2,1.31,2.36,4,4.68,5.06.44.19.47,1,.55,1.63.27,2.3.66,2.56,2.82,1.9,1.93-.59,3.72-1.88,5.78-1.8A12.12,12.12,0,0,0,27,122.4a26,26,0,0,1,4.23-1.72c8.88-2.49,17.85-4.59,26.81-6.8.88-.21,1.67-.41,2.14.64C60.19,112.93,59.06,113.36,58.23,113.54ZM13.17,99.44c1.95.17,3.55-1,5.34-1.42,15-3.71,29.84-7.64,44.94-10.7a13.17,13.17,0,0,0,6.58-3,40.32,40.32,0,0,1,10.21-6.55,7.53,7.53,0,0,0,1.56-1l-.69,0h0c-4,2-8,4.09-11.31,7.16A13.87,13.87,0,0,1,63,87c-16.13,3.47-32.23,7.07-48,12a4.77,4.77,0,0,1-2.74.08,4.42,4.42,0,0,0-4.48,1.17A11.07,11.07,0,0,1,13.17,99.44Zm38.05-9c5.19-1.21,10.76-1.58,15.5-3.77,5.5-2.53,10.12-6.88,15.47-9.92H81.8a7.53,7.53,0,0,1-1.56,1A40.32,40.32,0,0,0,70,84.29a13.17,13.17,0,0,1-6.58,3c-15.1,3.06-30,7-44.94,10.7-1.79.44-3.39,1.59-5.34,1.42a11.07,11.07,0,0,0-5.4.75c2.42-.2,5,0,7.23-.66C27,96.05,39.1,93.28,51.22,90.44ZM82,76.62c8.45-4.62,17.49-7.79,26.6-10.78.49-.16,1-.37,1.46-.52a.17.17,0,0,1,0-.14c.06-.11.12-.17.18-.17A147.41,147.41,0,0,0,92,71.43c-3.73,1.52-7.57,2.93-10.93,5.28A.84.84,0,0,1,82,76.62ZM110,65.32c-.5.15-1,.36-1.46.52C99.47,68.83,90.43,72,82,76.62a.8.8,0,0,1,.21.13,209.36,209.36,0,0,1,28-11.24A.45.45,0,0,1,110,65.32Zm0-.14a.17.17,0,0,0,0,.14l.18,0V65h0C110.16,65,110.1,65.07,110,65.18Zm0,.14a.45.45,0,0,0,.18.19,1.92,1.92,0,0,1,0-.24ZM81.8,76.74l.14-.1a.05.05,0,0,1,0,0,.84.84,0,0,0-.87.09h0Zm.14-.1-.14.1h.39a.8.8,0,0,0-.21-.13A.05.05,0,0,0,81.94,76.64ZM734.5,174.36c-3,7.63-8.09,13.88-13.35,19.89-4.6,5.26-11,8.16-17.54,10.29-15.13,4.9-30.4,9.32-45.86,13.09a282.34,282.34,0,0,1-31.66,5.49c-8.56,1.07-17.17,1.39-25.76,2-9.2.66-18.4,1.06-27.61,1.56-7.18.39-14.36.67-21.55,1-9.56.46-19.12.75-28.68.95-8.07.32-16.11-.38-24.15-.66-9.95-.34-19.87-1.56-29.8-2.37-6.9-.56-13.82-1-20.72-1.61-7.56-.7-15.09-1.61-22.65-2.41-5.29-.55-10.57-1.2-15.87-1.58-7.17-.51-14.24-1.78-21.34-2.74-8.61-1.16-17.19-2.49-25.77-3.87-11.25-1.81-22.47-3.75-33.66-5.89-9.61-1.84-19.21-3.77-28.78-5.86-11.46-2.5-22.91-5.07-34.31-7.86-17.4-4.26-34.82-8.51-52.11-13.2q-23.88-6.47-47.58-13.63c-12.32-3.76-24.39-8.18-36.41-12.77-3.55-1.37-7-3-10.47-4.6-.64-.29-1.69-.39-1.66-1.32,0-.75,1-.88,1.56-1.15a112.8,112.8,0,0,1,19.2-6.6c17.95-4.85,36-9.48,54-14.14Q216.47,120,241,113.76c14.82-3.81,29.59-7.83,44.47-11.39C303.67,98,321.84,93.71,340.13,90q17.63-3.61,35.43-6.09c7.6-1.07,15.2-2.31,22.85-2.89,7.32-.55,14.67-1.16,22.06-.29,6,.71,12.15.83,18.23,1.12,9,.41,18.05,1.09,27.05,2,4.45.43,8.94.49,13.38,1.1a1.8,1.8,0,0,0,1,0c4.66-2.84,9.32-.27,13.95.06,5.79.41,11.55,1.29,17.31,2.06,6.6.87,13.17,1.88,19.77,2.76,11.28,1.51,22.44,3.78,33.6,6q15.88,3.14,31.58,7.23c12.54,3.27,24.89,7.12,37.11,11.42,14.93,5.25,29.74,10.75,44.14,17.39,7.38,3.4,14.8,6.74,22,10.44a312.61,312.61,0,0,1,30.24,18.15c.68.45,3,.67.91,2.49-.45.39.56,1.07,1.08,1.47C736.48,167.89,736.65,168.86,734.5,174.36ZM498.55,86.86a3.17,3.17,0,0,0,3,.3A2.4,2.4,0,0,0,498.55,86.86Zm-4.27-.33c.86.57,1.61.41,2.74.11C495.87,85.79,495.14,85.76,494.28,86.53Zm238,78.94c-6.1-5.08-12.92-9.07-19.68-13.14-15-9.05-31-16.11-47.14-22.94a523.15,523.15,0,0,0-57.37-20.33A586.92,586.92,0,0,0,537.49,93.5a990.29,990.29,0,0,0-99.17-11.08c-19-1.16-37.91-1.52-56.9,1.18-32,4.57-63.47,11.69-94.79,19.5-29,7.23-57.95,14.73-86.88,22.27-22.68,5.92-45.48,11.35-68,18A98.77,98.77,0,0,0,119,148.11c.52,1.25,1.53,1.36,2.34,1.75,9.59,4.62,19.62,8.11,29.67,11.52,19.87,6.74,40.1,12.28,60.33,17.84q50.37,13.83,101.53,24.38a1184.83,1184.83,0,0,0,140.32,20c26.22,2.2,52.43,4.86,78.82,3.94q38.07-1.32,76.09-3.76a309.26,309.26,0,0,0,38.16-4.59c18.63-3.58,36.75-9.12,54.88-14.62,8.95-2.72,16.68-7.1,22.25-14.76,4-5.47,8.56-10.55,10.84-17.13C735.53,168.77,735.38,168.05,732.29,165.47Zm-453,52.11Q255,211.79,230.79,205.7c-8.19-2.06-16.3-4.47-24.46-6.64-17.16-4.58-34.25-9.43-51.09-15.06-17.6-5.87-34.93-12.52-51.18-21.63a4.1,4.1,0,0,0-5.46,1.45A23.36,23.36,0,0,0,95,178.07c.3,3.92.46,8.06,4.69,10.24-4.17-4-4.41-9.13-4.09-14.36a20.08,20.08,0,0,1,3-9.08c1.08-1.84,2.25-2.06,4-1.23,2.76,1.32,5.37,2.92,8.09,4.3a278,278,0,0,0,32.49,13.95c24.73,8.85,50,15.71,75.35,22.62,32.69,8.92,65.65,16.67,98.84,23.47a13.83,13.83,0,0,1,3.42,1c.43.2,1,.39.91,1s-.73.62-1.23.65a80.8,80.8,0,0,1-8.38-.25c-5.67-.21-11.34-.55-17-.74-8.88-.31-17.74-1-26.62-1.42-8.2-.42-16.38-1.07-24.57-1.68-10-.74-20.06-1.74-30-3.06-11.42-1.51-22.84-3-34.16-5.1-10.39-1.92-20.75-4.06-31-6.84a183.17,183.17,0,0,1-25.05-8.27,65.37,65.37,0,0,1-7.77-4.29c1.85,2.06,4.38,3.08,6.78,4.23,11.77,5.61,24.44,8.51,37,11.52,10.4,2.49,21,4.45,31.58,5.95,10.44,1.48,20.87,3.09,31.34,4.3,11.23,1.3,22.51,2.28,33.8,3.07,8.77.62,17.56,1,26.33,1.53,7.1.4,14.2.8,21.3,1,8,.2,15.92,1,23.9.61.83,0,1.73.19,2.48-.34,1.48-1,3.05-.78,4.63-.42a3.47,3.47,0,0,0,2.81-.13c-1.29-1.06-2.73-1-4.1-1.23C315.49,225.54,297.3,221.89,279.24,217.58Zm-130.56-6c10.22,2.78,20.58,4.92,31,6.84,11.32,2.1,22.74,3.59,34.16,5.1,10,1.32,20,2.32,30,3.06,8.19.61,16.37,1.26,24.57,1.68,8.88.47,17.74,1.11,26.62,1.42,5.67.19,11.34.53,17,.74a80.8,80.8,0,0,0,8.38.25c.5,0,1.11,0,1.23-.65s-.48-.83-.91-1a13.83,13.83,0,0,0-3.42-1c-33.19-6.8-66.15-14.55-98.84-23.47-25.31-6.91-50.62-13.77-75.35-22.62a278,278,0,0,1-32.49-13.95c-2.72-1.38-5.33-3-8.09-4.3-1.72-.83-2.89-.61-4,1.23a20.08,20.08,0,0,0-3,9.08c-.32,5.23-.08,10.38,4.09,14.36C95,181,94.59,173.43,98.53,165.62c1-1.88,1.79-2.44,3.84-1.27,15.42,8.74,31.76,15.4,48.52,21.06,23.82,8,48.05,14.7,72.32,21.18,31.33,8.38,62.88,15.89,94.69,22.24a7,7,0,0,1,3.54,1.23c-2.31,0-4.35.07-6.38,0-13.24-.58-26.47-1.16-39.7-1.83-33.84-1.72-67.53-4.9-100.86-11.25-16.61-3.16-33.09-6.86-48.82-13.26-3.36-1.36-6.55-3.13-9.82-4.71a65.37,65.37,0,0,0,7.77,4.29A183.17,183.17,0,0,0,148.68,211.55ZM635.94,78.31c3,.74,6.07,1.1,8.93,2.31a.78.78,0,0,1,.51.22l8.44,2a5.65,5.65,0,0,1,1.95.39c1.29.38,2.58.73,3.87,1.08,1.91.5,3.82,1,5.73,1.5,5.33,1.37,10.67,2.75,15.87,4.59,1.12.37,2.23.74,3.34,1.14a7.76,7.76,0,0,0,1.87.29c5.61,1.1,10.79,3.51,16.12,5.46a198.88,198.88,0,0,1,43.09,22.21c3.37,2.27,7,4.24,9.79,7.24-.28-1.27-1.88-1.62-2.2-3.19,3.28,1.12,4.87,4.41,8.36,5.83a11.8,11.8,0,0,0-2.45-2.68c-3.84-3.65-8.52-6.07-12.9-8.93-10.28-6.73-20.78-13.09-32-18a356.16,356.16,0,0,0-51.33-17.44c-16.24-4.28-32.73-7.4-49.2-10.56-1.44-.28-3.11-1.24-5.36,0,2.75.53,4.88.88,7,1.38,3.66.86,7.6.92,10.91,2.92a24.72,24.72,0,0,0,9,3.17C634.81,78.48,635.16,78.12,635.94,78.31Zm29.43,7.53c5.32,1.4,10.63,2.87,15.87,4.59C676,88.59,670.7,87.21,665.37,85.84Zm37.2,11.48c-5.33-1.95-10.51-4.36-16.12-5.46a7.76,7.76,0,0,1-1.87-.29l.83.28c.46.17,1,.16,1.31.66a76.72,76.72,0,0,1,8.91,2.93c13,4.67,25.8,9.86,37.61,17.12,7.49,4.6,14.81,9.46,22.21,14.21-2.83-3-6.42-5-9.79-7.24A198.88,198.88,0,0,0,702.57,97.32Zm-42.93-13c-1.29-.35-2.58-.7-3.87-1.08a5.65,5.65,0,0,0-1.95-.39c1.42.35,2.85.69,4.27,1.06ZM766.3,168.28c-.89,1.13-1.42,3.21-3.19,2.89-1.59-.29-1.39-2.34-1.78-3.62A50.6,50.6,0,0,0,753,152c-4.83-6.42-9.83-12.72-14.93-18.93a57.11,57.11,0,0,0-6.46-6.46c2.83,3.56,6.17,6.68,9,10.28,6,7.74,12.31,15.29,17.24,23.84,1.94,3.36,2.88,7,4.15,10.62.4,1.13.83,2.48,2.08.82,2.89-3.86,6.15-7.5,7.85-12.11,1.76-4.76,2.52-9.61.37-14.5C774.84,154.34,771.59,161.6,766.3,168.28ZM738,133.09c5.1,6.21,10.1,12.51,14.93,18.93a50.6,50.6,0,0,1,8.38,15.53c.39,1.28.19,3.33,1.78,3.62,1.77.32,2.3-1.76,3.19-2.89,5.29-6.68,8.54-13.94,5.93-22.7,2.21,9.67-1.82,17.33-7.84,24.35-.36.41-.57,1.19-1.32.92-.57-.19-.41-.86-.54-1.33a46.93,46.93,0,0,0-5.79-13.21c-4.68-7-10.23-13.27-15.37-19.89a46.23,46.23,0,0,0-9.81-9.79A57.11,57.11,0,0,1,738,133.09Zm-84.93-50a32,32,0,0,0-3.26-.45,15.75,15.75,0,0,1-4.39-1.16l-.36-.14c.4.39,1.16.3,1.34,1h0A119,119,0,0,0,658.12,86c-1.77-1-3.83-1.18-5.74-2.21A2.35,2.35,0,0,1,653.09,83.1Zm.92.41c8.61,2.49,17.4,4.35,25.91,7.22,2.22.74,4.34,2,6.8,1.78-7.91-2.51-15.82-5-23.9-7-3.25-.8-6.44-1.82-9.73-2.42a2.35,2.35,0,0,0-.71.65c1.91,1,4,1.24,5.74,2.21-1.36-1.53-3.57-1.24-5.27-2.52A6.17,6.17,0,0,1,654,83.51Zm-8.63-2.67c0,.23-.86,0-.31.5h0l.36.14a15.75,15.75,0,0,0,4.39,1.16,32,32,0,0,1,3.26.45,1.83,1.83,0,0,1,.73-.23Zm39.2,10.73c-1.11-.4-2.22-.77-3.34-1.14l.59.2C682.74,91,683.65,91.32,684.58,91.57Zm-24.94-7.23q2.86.76,5.73,1.5C663.46,85.33,661.55,84.84,659.64,84.34Zm-14.77-3.72.51.22A.78.78,0,0,0,644.87,80.62Zm40.54,11.23-.83-.28c-.93-.25-1.84-.61-2.75-.94l-.59-.2c-5.24-1.72-10.55-3.19-15.87-4.59q-2.86-.74-5.73-1.5l-1.55-.41c-1.42-.37-2.85-.71-4.27-1.06a1.83,1.83,0,0,0-.73.23c3.29.6,6.48,1.62,9.73,2.42,8.08,2,16,4.48,23.9,7C686.43,92,685.87,92,685.41,91.85Zm-41-10.79c-2.63-1-5.41-1.35-8.06-2.21a1,1,0,0,0-1.1.44h0l11.22,3h0c-.56-.34-1.25-.38-1.77-.8A.63.63,0,0,1,644.36,81.06Zm-8.06-2.21c2.65.86,5.43,1.26,8.06,2.21a.41.41,0,0,1,.16-.3.6.6,0,0,1,.35-.14c-2.86-1.21-5.94-1.57-8.93-2.31-.78-.19-1.13.17-.74,1h0A1,1,0,0,1,636.3,78.85Zm8.78,2.5-.72-.29a.63.63,0,0,0,.29.48c.52.42,1.21.46,1.77.8C646.24,81.65,645.48,81.74,645.08,81.35Zm.3-.51-.51-.22a.6.6,0,0,0-.35.14.41.41,0,0,0-.16.3l.72.29h0C644.52,80.79,645.37,81.07,645.38,80.84ZM501.57,87.16a2.4,2.4,0,0,0-3-.3A3.17,3.17,0,0,0,501.57,87.16ZM497,86.64c-1.15-.85-1.88-.88-2.74-.11C495.14,87.1,495.89,86.94,497,86.64Z"/></g></g></svg>