<svg xmlns="http://www.w3.org/2000/svg" viewBox="0 0 800 400"><defs><style>.cls-1{fill:#fff;}</style></defs><g id="ART_GALLERY" data-name="ART GALLERY"><path class="cls-1" d="M46.05,29.15h1.59q2.91,0,12.72,27.52H58.77l4.77,25.79L62,84.19v1.72q6.35,36,11.07,46.53l-6.31,5.11,4.77,8.62v10.34L68.3,160H66.71q-10.27-8.62-15.89-39.58l-4.77-3.45H27Q16.63,147.55,9.54,153.07L8,151.34H6.36q0-8.61,6.36-25.79l1.59-10.34H4.77L0,110q0-6.37,20.67-8.62,7.41-32.34,20.61-51.65V34.26ZM31.74,101.42v1.72h8l10.23,1.61L44.41,67.64Z"/><path class="cls-1" d="M91.59,45.75q16.34,0,28.2,17.47L119.36,82q-.52,9.47-9.64,21.71,18.6,25.05,35.18,43.89,10.54,16.2,5.3,26l-5-1.72q6.32-9.94-6.09,2.53Q108.19,120.73,104,112.91h-1.9v1l1,6.21v1l-1,1,1.9,6.2v10.34l1,12.41-1,1h-2.86c-1.9,0-3.18-4.13-3.81-12.41q-1.91,0-2.86-17.57h1l-1-1V108.77l1-1v-1a5.69,5.69,0,0,1-5.72-4.13l1.9-3.11v-3.1q-6.68-2.7-6.67-5.17v-1l1.91-2.07h2.86l4.77,3.1V89.18L92.55,78.84l1-3.1q-2.11-24.81-5.72-24.82V48.86Zm10.5,20.68-1,8.28,1,6.2-1,9.31H103q9.54-1,9.54-10.29l-1.22-12.4A37.37,37.37,0,0,1,102.09,66.43ZM104,98.49v1h1.91v-1Zm0,0v1h1.91v-1Zm29.2,49.06,2.76,4.94,7.74,8.62-6.31-15.17,1.91,8.79Z"/><path class="cls-1" d="M133.49,24l1.21,1.38H136L144.77,24l36.46,1.38h36.46l-5,10.91,10.71-5.23Q222,29,214,36.62l-36.51,3.79-3.76,1.32v9.6l-2.55,14.93V69l1.27,4.08-1.27,6.83,3.76,65.44-3.76,2.7-8.79-12.3-6.26-4.08,5-46.3L159.88,84l2.49-42.28h-17.6c-2.08,0-3.34-1.8-3.76-5.4H130.94c-4.48,0-7.42-1.82-8.79-5.46Q125.65,24,133.49,24Z"/><path class="cls-1" d="M261,32.14h3q10.53,0,16.58,15.91v2.13l-3.92,7.41h-2.91Q267.65,44.83,263,44.83q-8.37,0-16.64,17-5.36,0-9.75,21.2l-1,1,1,5.29-1,1.09v1q3.87,26.31,11.72,40.27l2,6.38h2.91v-1l-2.91-6.37.95-1h1q7.79,8.1,7.79,12.7h2q1.63,0,8.79-10.63l-.95-1v-2.13q2-2.11,4.88-18h-2l-18.54,4.25q-5.88-2.11-5.88-4.25v-2.12q0-4.37,28.35-6.32c0-2.15.65-3.22,2-3.22h.95c1.56,0,2.54,2.49,3,7.47q-2,3.17-3,12.7l1,1v1.09l-1,3.16,2,4.25q0,10.86-21.51,23.33h-2.92q-6,0-16.64-10.63-11.7-3.73-11.71-19.07l-2-9.54,2.92-24.36-1-4.25q0-16.95,5.88-16.95,10.44-29.7,16.59-29.7Q250.28,34.84,261,32.14Z"/><path class="cls-1" d="M330.78,61.79A1.92,1.92,0,0,1,332.3,61a2.56,2.56,0,0,1,2,1.29,5.62,5.62,0,0,1,.92,3.3v2.12l1.63-1.89c1-1.25,1.8-1.88,2.38-1.88a2.54,2.54,0,0,1,1.69,1,3,3,0,0,1,.92,1.94,1.64,1.64,0,0,1-.06.36,3,3,0,0,0-.05.58q0,4.24,2.33,24.71t3,21.3q.44.58,5.86,1.29c3.61.55,5.68,1.18,6.18,1.88a2.51,2.51,0,0,1,.65,1.53c0,.4-.36,1-1.08,1.77s-2.75,1.17-6.08,1.17-4.88.32-4.88,1A23.2,23.2,0,0,0,348,125c.18,1.3.31,2.34.38,3.12q.43,4.35,2.17,15.41t2.71,15.77a41.65,41.65,0,0,1,.87,4.82,2.72,2.72,0,0,1-.87,1.77,2.23,2.23,0,0,1-1.62.82c-1.09,0-1.85-.71-2.28-2.12q-1.09-3.18-5.27-19t-5.69-22.53l-.44-1.76-11.29.47q-11.28.47-11.61.59t-3.58,9.17q-3,8.72-4.45,10.47t-3.91,9.18a128.07,128.07,0,0,1-4.88,12.29c-1.09,2.16-2.13,3.24-3.15,3.24a2.57,2.57,0,0,1-1.19-.35,1.86,1.86,0,0,1-1.09-1.89,9.76,9.76,0,0,1,1.09-3.76q1.19-2.36,5.53-14.35,3.91-10.95,6.95-17.65c.36-.78.76-1.71,1.19-2.77s.76-1.82,1-2.29l.22-.71q-1.31,0-6.84.71-7.61.82-9.33.82a6.39,6.39,0,0,1-3.48-.64,2.54,2.54,0,0,1-.86-2.18c0-1.72,1.66-2.59,5-2.59q4.56,0,4.56-1.88a2.37,2.37,0,0,1,1.9-2.3,26.06,26.06,0,0,1,6.78-.76l6.08-.12,6.18-13.29q5.64-12.36,9.12-18.95l3-5.52-.44-6.83q-.21-3.76-.21-4.47A6.39,6.39,0,0,1,330.78,61.79Zm5.86,51.07q-3-19.19-3.58-22l-.87-5.41-4,7.89q-2.82,5.52-5.91,12.47t-3.09,7.53l8.89.47,8.8.23Zm1.63-24.71c0-.24-.08-1.39-.22-3.47s-.33-3.94-.54-5.59-.47-2.47-.76-2.47-.33.47-.33,1.41a43.56,43.56,0,0,0,1.41,9.77l.76,3.64Zm.43,5.41c0,.55,0,.82.11.82l.22-1.17v-.47A1.58,1.58,0,0,0,338.7,93.56Zm.43,3.65c0,.55.15.69.44.41a.55.55,0,0,0,0-.88C339.35,96.74,339.21,96.9,339.13,97.21Z"/><path class="cls-1" d="M391.88,47.13h1.37l4.19,3-1.38,1.49v1.55q2.34,3,4.19,27.29l-1.38,1.55,1.38,7.58-1.38,65.26.43,8.28,47.42,1.89,4.29,1.61q6.8-1.16,9.33,1.44l1.17,1.95q-1.23,5.46-2.44,6.09l-31.95,3.56-11.45-1.84q-13.2-6.25-19.61-.17h-2.81q-2.81,0-2.8-9.13-7,0-7-3.05V164q0-2.31,5.62-4.6l-4.24-25.79,1.43-1.5-2.81-3,1.38-6.09-1.38-4.54,1.38-4.54-1.38-9.13V98.72l2.81-3-1.43-1.55V92.69l1.43-9.14-1.43-1.49,2.81-19.76-1.38-1.5V59.25Q388.48,47.13,391.88,47.13Z"/><path class="cls-1" d="M430.91,50.18h1.37l4.19,3-1.38,1.49v1.56q2.34,3,4.19,27.28L437.9,85.1l1.38,7.59L437.9,158l.43,8.27,47.42,1.9,4.29,1.6q6.79-1.14,9.33,1.44l1.17,2q-1.23,5.46-2.44,6.09l-32,3.57-11.45-1.84q-13.2-6.27-19.61-.18h-2.81q-2.8,0-2.8-9.13-7,0-7-3v-1.5q0-2.29,5.62-4.59l-4.24-25.8,1.43-1.49-2.81-3,1.38-6.09-1.38-4.53,1.38-4.54-1.38-9.14v-6.09l2.81-3-1.43-1.55v-1.5l1.43-9.13-1.43-1.5,2.81-19.76-1.38-1.49V62.3Q427.51,50.18,430.91,50.18Z"/><path class="cls-1" d="M514.29,36l1.16,1.26-2.27,3.62,1.11,1.26v2.42c0,1.64-3,2.47-9,2.47l-23.63,8.5L476,60.4l-3.34,30.51h1.11L488.43,86l3.39,4.89v1.2q-4.92,7.36-19.13,7.36h-1.17v7.29l-3.33,30.51,22.46-12.18,11.29-2.47,1.11,1.26v3.62q-4.5,14.66-20.24,14.65,0,2.7-21.41,9.77h-2.22l-3.39-3.68,3.39-4.88v-4.89L458,132.38l1.17-7.29v-1.21L458,119l2.28-13.44L459.18,97q1.9,0,7.84-34.13V61.61c-2.23,0-3.34-.81-3.34-2.41A9.9,9.9,0,0,0,467,51.9Q504.16,36,514.29,36Z"/><path class="cls-1" d="M519.19,45.75q16.32,0,28.19,17.47L547,82q-.53,9.47-9.65,21.71,18.6,25.05,35.19,43.89,10.54,16.2,5.3,26l-5-1.72q6.3-9.94-6.1,2.53-30.94-53.65-35.13-61.47h-1.91v1l1,6.21v1l-1,1,1.91,6.2v10.34l.95,12.41-.95,1h-2.86q-2.87,0-3.81-12.41-1.92,0-2.87-17.57h1l-1-1V108.77l1-1v-1a5.71,5.71,0,0,1-5.73-4.13l1.91-3.11v-3.1q-6.68-2.7-6.68-5.17v-1l1.91-2.07h2.86l4.77,3.1V89.18l-1.9-10.34,1-3.1Q519,50.93,515.38,50.92V48.86Zm10.49,20.68-.95,8.28.95,6.2-.95,9.31h1.91q9.54-1,9.54-10.29L539,67.53A37.52,37.52,0,0,1,529.68,66.43Zm1.91,32.06v1h1.91v-1Zm0,0v1h1.91v-1Zm29.2,49.06,2.75,4.94,7.74,8.62L565,145.94l1.9,8.79Z"/><path class="cls-1" d="M628.06,31.74l2.65,2.93v1.89q-3,0-7,31l-8.8,25.22,1.8,29.07v6.78l1.75,6.78-.9,1v1l.9,2.93,4.4-1q-5.62,12.58-7.05,12.59-3.24,0-4.4-21.32v-6.78L609.62,117l.85-2.92L608.72,88q-24.86-28.16-29.89-28.15l-.9-1v-.92c0-1.3,1.17-2,3.5-2V55l-2.6-3.9v-.92c0-1.3.87-2,2.6-2L593.78,60.8q6,0,14.09,16.49l.85,1h.9a34.44,34.44,0,0,1,5.25-18.44Q616.25,49,628.06,31.74Z"/><path class="cls-1" d="M761.63,185a186.84,186.84,0,0,1-19.3-21.63,191.55,191.55,0,0,1-15.76-24.2,194.7,194.7,0,0,1-12-26.34,197.25,197.25,0,0,1-7.92-27.78A186.65,186.65,0,0,1,703,56.41a93.3,93.3,0,0,1,.12-15.23c.54-4.78,1.94-9.78,5.08-13.53,2.71-3.24,6.65-5.84,11-6a12.53,12.53,0,0,1,10,4.68c2.58,3,4.14,6.81,5.32,10.51,1.52,4.77,2.48,9.73,3.52,14.61,2.45,11.43,4.56,23,6.22,34.52s2.92,23,3.81,34.63q.33,4.26.6,8.54c.13,2.08,3.35,2.11,3.26,0-.36-8.1-1-16.17-1.12-24.28a181.63,181.63,0,0,1,1.1-24.35,101.66,101.66,0,0,1,5.32-22.84A75.59,75.59,0,0,1,762,47.08a49.2,49.2,0,0,1,6.52-9.45,21.15,21.15,0,0,1,8.88-6.23,11.93,11.93,0,0,1,9,.59c5.37,2.74,8.15,8.89,9.67,14.49a56.21,56.21,0,0,1,1.66,10.2q.57,6.69.52,13.42a165.52,165.52,0,0,1-2.39,26.48c-3,17.84-8.5,35.22-15,52.06-3.22,8.3-6.63,16.56-10.31,24.67-1.4,3.11-3,6.33-5.42,8.74a10,10,0,0,1-3.91,2.43,15.66,15.66,0,0,1-6.5.31c-8.42-.95-17.08-2.2-25-5.38-7.52-3-13.65-8.5-18.71-14.72a108.28,108.28,0,0,1-12.21-19.15,125.27,125.27,0,0,1-8.22-20.46,118.92,118.92,0,0,1-4.93-43.4,96.3,96.3,0,0,1,4-21.15A88.74,88.74,0,0,1,698.35,41a93.5,93.5,0,0,1,6-8.76l-2.53-1.07A230.29,230.29,0,0,0,692,61.62a227.59,227.59,0,0,0-5.54,31.74c-.62,6-1,12-1.08,18.06,0,1.67,2.35,1.57,2.53,0A164.52,164.52,0,0,1,696,77q1.66-4.75,3.59-9.41l-2.27-.62c-1.63,11.59-3.36,23.16-5,34.74-.47,3.32-.95,6.64-1.42,10a1.31,1.31,0,0,0,.88,1.56,1.27,1.27,0,0,0,1.55-.88q2.46-17.4,4.85-34.79.69-5,1.41-10a1.18,1.18,0,0,0-2.27-.62A173.89,173.89,0,0,0,687.05,101c-.65,3.34-1.19,6.71-1.67,10.08l2.48.34a246.66,246.66,0,0,1,3.19-31.63,236.48,236.48,0,0,1,7.41-31q2.68-8.57,6-16.89a1.36,1.36,0,0,0-.8-1.64,1.41,1.41,0,0,0-1.73.57c-9,11.78-14.61,26.22-17,40.79a118.74,118.74,0,0,0,1.25,44.73,126.59,126.59,0,0,0,17.24,41.79c4.46,6.9,9.58,13.5,16.17,18.51,7,5.3,15.39,7.9,23.92,9.48,2.2.41,4.42.77,6.64,1.1s4.44.72,6.67.86a14.49,14.49,0,0,0,6.74-1A14.2,14.2,0,0,0,768,184a31.79,31.79,0,0,0,5.87-9.26c1.91-4.15,3.76-8.35,5.56-12.56,7.35-17.18,13.71-34.92,17.76-53.19,4-18.07,5.74-36.77,3.63-55.21-.76-6.62-2.52-13.61-6.56-19a17.91,17.91,0,0,0-7.37-6,15.17,15.17,0,0,0-10.62-.34c-7.62,2.56-12.8,9.57-16.64,16.27a84.82,84.82,0,0,0-8.78,22.77c-3.82,16.22-3.8,33.08-3,49.63.2,4,.36,8.06.72,12.08h3.26q-1.29-17.94-3.76-35.77t-6-35.52c-1.16-5.72-2.37-11.45-3.77-17.12a49.23,49.23,0,0,0-4.35-12c-1.91-3.48-4.62-6.76-8.27-8.48a15,15,0,0,0-13.16.34,21,21,0,0,0-9.6,10.15c-2.25,5-3,10.41-3.08,15.81a167.13,167.13,0,0,0,2.32,30.05,189.34,189.34,0,0,0,7,29,199.35,199.35,0,0,0,11.35,27.52,194,194,0,0,0,15.34,25.41,189.29,189.29,0,0,0,19.21,22.81c1.69,1.72,3.42,3.4,5.17,5.05.91.85,2.26-.5,1.36-1.36Z"/><path class="cls-1" d="M696.26,117.37q3.13-10.75,6.28-21.5l-2.4-.66c-1.66,12.2-3,24.44-3.8,36.73q-.35,5.17-.59,10.37a1.33,1.33,0,0,0,2.61.35q3.58-14.57,7.16-29.14l-2.86-.39c-.29,11.61-.49,23.22-.83,34.82-.09,3.29-.29,6.57-.37,9.86a1.72,1.72,0,0,0,1.7,1.7,1.75,1.75,0,0,0,1.7-1.7,178.2,178.2,0,0,1,4.93-26.62c.67-2.53,1.39-5,2.17-7.52l-3.5-.48q1.15,14.53,1.19,29.12c0,2.77,0,5.54-.08,8.31a1.86,1.86,0,0,0,3.63.49q2.82-11.7,5.61-23.41l-3.68-.5q.61,15.77,1.23,31.54a1.88,1.88,0,0,0,1.64,1.85,1.91,1.91,0,0,0,2.07-1.35l6-14.93-3.77-.51q.56,12.28,1.1,24.57a2,2,0,0,0,1.7,1.92,2,2,0,0,0,2.15-1.4,118.09,118.09,0,0,1,4.63-15.29h-3.8q1.55,8.25,3.1,16.51a2,2,0,0,0,3.24.86,18.58,18.58,0,0,0,4.58-7.24l-2.83,1.15c-.32-.23.06.06.12.13a2.39,2.39,0,0,1,.22.23c-.11-.15-.13-.17-.05-.06a6.65,6.65,0,0,1,.5.86c0,.07.07.15.1.23-.08-.2-.08-.2,0,0l.18.49.35,1a7.12,7.12,0,0,0,2.56,3.88,5.51,5.51,0,0,0,4.08.89A3.39,3.39,0,0,0,747,179.3l-3.23,1.34,4.35,5.13a1.85,1.85,0,0,0,1.8.48,8.37,8.37,0,0,0,4.12-2.61l-3.06-.81a6.21,6.21,0,0,0,7.1,3.84,1.83,1.83,0,1,0-1-3.52c-.21,0-.22,0,0,0l-.34,0c-.1,0-.51,0-.19,0a5.28,5.28,0,0,1-.66-.16c-.2-.07-.21-.07,0,0l-.23-.11a5.29,5.29,0,0,1-.5-.32c.27.2-.16-.16-.22-.21l-.17-.19c.11.15.1.14,0,0s-.34-.65-.21-.32a1.93,1.93,0,0,0-1.28-1.28,1.83,1.83,0,0,0-1.78.47,4.49,4.49,0,0,1-2.51,1.64l1.8.47-4.3-5.19a1.86,1.86,0,0,0-2.06-.39,2,2,0,0,0-1.17,1.73c0-.51,0-.18,0,0,0-.06.18-.39,0-.17.2-.23.24-.3.14-.19s0,0,.19-.14c-.06,0-.34.19,0,.05s0,0-.08,0c-.33,0,.36,0,.12,0-.09,0-.21,0-.3,0-.45,0,0-.05,0,0l-.63-.17c-.33-.09.21.14,0,0s-.2-.1-.29-.16l-.28-.18c-.19-.1.25.26,0,0a3.57,3.57,0,0,0-.27-.28c.15.15.16.25,0,0l-.19-.36-.11-.24c.09.22-.09-.22-.1-.26l-.15-.41c-.21-.57-.39-1.15-.62-1.72a7.57,7.57,0,0,0-2.6-3.55c-1.08-.78-2.45.09-2.83,1.16,0,.13-.09.26-.14.39s-.18.44-.13.34a2.25,2.25,0,0,0-.11.24l-.18.38a16.37,16.37,0,0,1-.92,1.62,13.55,13.55,0,0,1-.85,1.19c-.4.47-.83.92-1.27,1.36l3.24.85q-1.51-8.27-3-16.53a2,2,0,0,0-1.9-1.45,2.08,2.08,0,0,0-1.9,1.45,113.2,113.2,0,0,0-4.61,15.3l3.85.52q-.6-12.28-1.18-24.57a1.92,1.92,0,0,0-3.77-.51l-5.91,14.94,3.71.51q-.64-15.77-1.26-31.54a1.9,1.9,0,0,0-1.63-1.84,1.85,1.85,0,0,0-2,1.35q-2.79,11.7-5.56,23.42l3.62.49q.22-14.58-.65-29.14c-.17-2.76-.36-5.52-.59-8.29a1.79,1.79,0,0,0-3.5-.47,175.4,175.4,0,0,0-6.07,27q-.59,4.05-1,8.11h3.4c.11-5.83.08-11.65.2-17.47s.22-11.57.34-17.35q.09-4.92.17-9.86a1.46,1.46,0,0,0-2.86-.38q-3.47,14.6-6.92,29.2l2.62.36q.71-18.17,2.82-36.23c.39-3.41.82-6.81,1.31-10.21a1.29,1.29,0,0,0-.87-1.53,1.26,1.26,0,0,0-1.53.87q-3.2,10.73-6.4,21.47a1.31,1.31,0,0,0,2.52.69Z"/><path class="cls-1" d="M781.86,44.17c4.71,4.92,7.24,11.66,8.27,18.31,1.18,7.62.37,15.47-1.08,23-1.6,8.35-3.67,16.61-5.67,24.87l-6.06,25c-2,8.37-4.07,16.73-6,25.12-.24,1.06-.49,2.11-.73,3.17a.88.88,0,0,0,1.7.46c2.27-8.43,4.37-16.91,6.51-25.38s4.29-16.94,6.43-25.41,4.47-16.7,6.35-25.13c1.76-8,2.76-16.24,1.57-24.35A37.81,37.81,0,0,0,785,44.71c-.56-.65-1.12-1.3-1.72-1.92-.87-.9-2.24.47-1.37,1.38Z"/><path class="cls-1" d="M772.47,48.83q-7,20.07-12.36,40.64c-1,3.84-2,7.69-2.77,11.57-.26,1.28,1.64,1.83,2,.54,1.77-6.85,3.38-13.75,5.21-20.59s3.8-13.64,5.92-20.39q1.77-5.68,3.67-11.31c.36-1-1.29-1.49-1.64-.46Z"/><path class="cls-1" d="M722.4,35.27c2.23,8.82,4.18,17.72,5.71,26.68s2.68,18,3.42,27.05c.42,5.13.64,10.27.89,15.42.07,1.46,2.33,1.48,2.29,0A257.39,257.39,0,0,0,732.29,77q-1.83-13.64-4.91-27c-1.15-5-2.45-10-3.91-15a.56.56,0,0,0-1.07.3Z"/><path class="cls-1" d="M702.54,367.58c-13.41-4.63-26.95-8.82-40.59-12.73q-20-5.73-40.3-10.64c-7.45-1.82-14.93-3.6-22.44-5.16l.53,4.06c7.6-3.66,16.07-5.17,24.45-5.39a2.26,2.26,0,0,0,1.13-4.17q-31.43-21.84-62.86-43.67l-31.27-21.72-15.8-11c-2.44-1.69-5-3.29-7.33-5.15-1.55-1.24-3.4-3-2.42-4.85a11.34,11.34,0,0,1,2.46-2.64l4.07-3.75,7.85-7.22,15.7-14.44h-3.2q18.94,20.21,38.52,39.79,19.76,19.69,40.2,38.67c7.67,7.15,15.54,14.11,23.17,21.31,1,1,3.27.37,3.07-1.27-1.41-11.68-3-23.33-4.5-35l-4,1.09c8,11.57,16.47,22.77,25.24,33.75q13.41,16.74,28,32.5,4.17,4.51,8.41,8.95c2.84,3,5.78,5.84,8.64,8.79,1.5,1.56,3.88-.82,2.38-2.37-5-5.18-9.78-10.6-14.57-16s-9.52-10.82-14.19-16.3c-9.06-10.65-17.87-21.53-26.32-32.67q-7.08-9.33-13.87-18.86a2.16,2.16,0,0,0-3.93,1.66c1.72,11.63,3.37,23.28,5.19,34.89l3-1.75c-7-6.16-13.73-12.67-20.49-19.1s-13.45-12.89-20.1-19.41q-19.85-19.47-39.21-39.44-10.81-11.15-21.43-22.47a2.31,2.31,0,0,0-3.2,0L518,229.31,510.71,236c-2.36,2.17-4.8,4.27-7.08,6.52-1.91,1.89-3.24,4.34-2.69,7.09.6,3,3.1,5.09,5.44,6.8,5.23,3.84,10.67,7.43,16,11.14l64.5,44.78q18.08,12.56,36.17,25.09l1.13-4.17a65.34,65.34,0,0,0-26.69,6,2.24,2.24,0,0,0,.53,4.06c13.45,2.77,26.88,5.59,40.23,8.86q20.43,5,40.62,10.93,11.52,3.36,23,6.82c1.52.47,2.13-1.85.65-2.36Z"/><path class="cls-1" d="M649,355.5A423.45,423.45,0,0,1,603.31,344q-6.59-2.05-13.12-4.29v3.37a274.32,274.32,0,0,1,39.7-8.75c1.56-.23,1.7-2.6.43-3.29-18.08-9.81-35.87-20.12-53.48-30.73s-35.13-21.67-52.35-33.06q-14.61-9.67-29-19.67l.59,2.26a387.63,387.63,0,0,1,31-35.49h-2.28c12.61,15.56,25.68,30.75,39.35,45.39,13.9,14.88,28.44,29.18,43.42,43,8.54,7.87,17.3,15.51,26.15,23a1.57,1.57,0,0,0,2.6-1.51c-2.86-15.49-5.5-31-8.23-46.52l-3.38,1.43q14.89,20.06,31.22,39,16.57,19.19,34.41,37.24c6.81,6.89,13.75,13.68,20.85,20.28l1.59-2.74c-19.57-5.95-39.1-12.07-58.83-17.46q-8.31-2.25-16.63-4.41c-2.35-.61-3.35,3-1,3.63a352.69,352.69,0,0,1,53.53,19.12c5.14,2.31,10.38,4.54,15.39,7.12,1.54.79,2.89-1.53,1.36-2.32-4.46-2.29-8.83-4.72-13.35-6.89s-9-4.14-13.53-6.07q-13.37-5.65-27.2-10.13c-5-1.62-10.09-3.13-15.2-4.46l-1,3.63c19.71,4.95,39.4,10.13,58.84,16.05,5.61,1.71,11.18,3.51,16.75,5.35a1.65,1.65,0,0,0,1.59-2.73c-12.16-11.89-24.09-24-35.61-36.5Q661,318.44,645.13,299c-5.81-7.16-11.6-14.35-17.2-21.68a1.85,1.85,0,0,0-3.37,1.42c2.94,15.45,6,30.89,8.79,46.36l2.6-1.51c-15.66-13.37-30.81-27.36-45.47-41.81q-21.59-21.27-41.69-44c-7.42-8.41-14.67-16.93-21.68-25.69a1.63,1.63,0,0,0-2.28,0,390.19,390.19,0,0,0-31.35,35.78,1.68,1.68,0,0,0,.33,2.59q25.5,17.89,51.78,34.63,26,16.62,52.75,32.09,15,8.67,30.16,17l.43-3.29a254,254,0,0,0-39.67,8.85,1.76,1.76,0,0,0,0,3.37A446,446,0,0,0,635.34,356q6.4,1.41,12.84,2.62c2,.38,2.92-2.75.86-3.14Z"/><path class="cls-1" d="M677.23,367.42q-19.12-6.76-38.44-13c-12.71-4.1-25.45-8.12-38.29-11.82-7.12-2-14.26-4.06-21.42-5.95v3.16c10.11-4.25,21.31-5.67,32.21-5.48,3.48.05,7,.29,10.43.66,1.74.19,2.33-2.47.88-3.25-12.79-6.83-25.39-14-37.88-21.37s-25-15.13-37.29-23.1c-6.91-4.49-13.74-9.09-20.56-13.7a1.84,1.84,0,1,0-1.86,3.18c12,8.38,24.36,16.36,36.8,24.12S586.7,316,599.42,323.15c7.08,4,14.24,7.8,21.42,11.59l.88-3.24c-11.7-1.2-23.72-.79-35.11,2.29a72.81,72.81,0,0,0-8.4,2.85,1.7,1.7,0,0,0-1.21,1.58,1.67,1.67,0,0,0,1.21,1.58c12.76,3.57,25.52,7.17,38.22,11q19.3,5.76,38.43,12.1,10.83,3.58,21.6,7.34a1.45,1.45,0,0,0,1.78-1,1.47,1.47,0,0,0-1-1.78Z"/><path class="cls-1" d="M712.7,368.84l-33-36.95Q663.15,313.42,646.59,295q-4.58-5.1-9.09-10.26c-1.54-1.74-3.21-3.35-4.76-5.07l-4.81-5.32a1.6,1.6,0,0,0-2.66.7c-3.94,13.62-.88,28.2,4.61,40.93l2.64-2q-18.27-21.09-36.85-41.9T558,230.47q-10.71-11.58-21.56-23a2.13,2.13,0,0,0-2.56-.33,141.18,141.18,0,0,0-34.74,30.64,2.19,2.19,0,0,0,0,3,2.14,2.14,0,0,0,3,0,146,146,0,0,1,33.87-30l-2.56-.33c12.91,13.58,25.63,27.34,38.36,41.08S597,279,609.46,292.86q10.41,11.65,20.68,23.43a1.68,1.68,0,0,0,2.21.13,1.72,1.72,0,0,0,.43-2.16c-5.16-11.84-8.15-25.71-4.44-38.39l-2.66.7c2.77,3.09,5.52,6.2,8.21,9.36s5.62,6.11,8.4,9.18q8.28,9.13,16.55,18.29,16.62,18.38,33.26,36.73l18.69,20.62c1.17,1.29,3.07-.62,1.91-1.91Z"/></g></svg>