<svg id="Layer_1" data-name="Layer 1" xmlns="http://www.w3.org/2000/svg" viewBox="0 0 2000 500"><defs><style>.cls-1{fill:#fff;}</style></defs><path class="cls-1" d="M186.21,4.67c-4.15,3.92-6.61,6.62-9.46,8.83-2.32,1.8-5,4-7.7,4.36C156,19.64,147.33,26.73,143.32,39c-3.53,10.75-6.07,21.82-9.1,33,7.22-2.25,13-5.49,18.85-5.61,25.46-.54,36.88,9.4,41.64,37.76,2.56,15.18-.63,30.3-6.82,44.63-9.54,22.1-22.38,27.83-45.59,20.78-14.38-4.37-27.1-19.17-26.73-34.57.35-14.35-3.69-28.75-5.09-43.19-1.75-17.88,2.47-34.51,12.09-49.8,3.79-6,7-12.43,10.47-18.66C141.14,8.75,154.11,1.36,170.09,0,175.42-.4,181.08,3.09,186.21,4.67ZM142.74,139.75c18.78,2.77,22.15-18.83,35.91-22.64l2.58,1.87-21.52,33.83c8.44,4.4,11.78.24,14.87-4.93,9.66-16.19,10.26-40,.83-51.07ZM150,110.18l2,1.52q7.47-9.87,15-19.73C153.37,91.87,156.45,104.8,150,110.18Z"/><path class="cls-1" d="M19.39,94.32c17.14-19,43.09-10.32,50.75,9.5,2.35,6.08,5.18,12.06,6.66,18.35,3,12.89,1.57,24.64-10.26,33.32-4.22,3.09-7.6,7.32-11.36,11-16.94,16.67-39.62,13.27-46.51-9.41-11-36.34-13.78-73.69,5.25-108.71C19,39,28.41,31.66,36.8,24.5c7.89-6.74,17.45-6.12,26.18-1,2.87,1.69,6.37,5.24,6.4,8,0,2.56-3.7,6.6-6.56,7.52C36.24,47.55,27.17,69.5,19.39,94.32Zm40,25.36L37.1,151.62C57.15,154,64.12,138.34,59.34,119.68ZM19.62,133.31c6.72,5.6,11.13,6.84,15.71-.18,4.72-7.25,10.42-13.86,15.49-20.89,1.15-1.6,1.45-3.82,2.13-5.76l-2.18-1.35Z"/><path class="cls-1" d="M220.25,152.6a18.35,18.35,0,0,1,2.43-9.43c1.62-2.76,3.71-4.15,6.27-4.15a7.08,7.08,0,0,1,4.87,1.89q2.77,2.26,4.52,26.78,5.57,82.6,12.87,104.48,1,3,5.22,22.64,2.79,15.09,11.49,46T278,371.75q1,0,5.57-7.54,4.88-7.54,23.84-32.63t30.44-38.28Q350,279,357,277.46a9.78,9.78,0,0,1,3.13-.38q7.31,0,7.3,7.92a13.64,13.64,0,0,1-.17,1.89,11.48,11.48,0,0,0-.17,1.5q0,5.67,18.44,35.84Q406.4,358.18,408.13,362l3.13,6.79.35-5.66Q420,259,429.36,222.76q11.82-47.89,31.66-75.44,5.91-7.53,11.48-7.54,8,0,8,10.94,0,14.7-21.57,106.37-23.31,100-23.31,138.05,0,25.65-11.83,34.33-4.53,3-8-.38c-2.32-2.52-3.48-6.66-3.48-12.45q0-5.65-1.22-8.3a26.9,26.9,0,0,0-5.39-6.79q-5.93-6-18.27-28.66T365.34,331q-9.75-19.25-10.44-19.24-1.39,0-11.13,15.84-16,25.28-33.58,47.91T288.1,400c-3.72,1.27-6,3.4-7,6.42q-1.39,4.16-7,4.15a7.21,7.21,0,0,1-5.22-1.7q-1.74-1.7-4.52-7.73T252.78,364.4q-8.88-30.73-11-36a193.21,193.21,0,0,1-7.31-26Q231,286.51,231,279.72q0-5.28-10.09-53.94t-10.43-50.92a30,30,0,0,1-.35-5.28c0-6.54,2.31-9.81,7-9.81C219.2,159.77,220.25,157.38,220.25,152.6ZM449.19,225q7-27.17,7-30.93v-.76c-.7,0-2.21,3.53-4.52,10.56a255.49,255.49,0,0,0-8.36,29q-4.17,17.73-4.17,22.63c0,1,.11,1.51.35,1.51l.35-.38Q440.84,256,449.19,225Z"/><path class="cls-1" d="M625.8,135.63a6.09,6.09,0,0,1,4.87-2.64q3.48,0,6.44,4.15a17.79,17.79,0,0,1,3,10.56v6.79l5.22-6c3.24-4,5.79-6,7.65-6q2.43,0,5.39,3.21t3,6.22a5.91,5.91,0,0,1-.17,1.13,8.35,8.35,0,0,0-.18,1.89q0,13.57,7.48,79.21T678,302.35q1.39,1.89,18.79,4.15,17.4,2.64,19.83,6a8.13,8.13,0,0,1,2.09,4.91q0,1.89-3.48,5.66t-19.48,3.77q-15.66,0-15.66,3a74.65,74.65,0,0,0,.87,8.48c.58,4.15,1,7.49,1.22,10q1.38,14,7,49.41t8.7,50.55q2.77,13.19,2.78,15.46c0,1.76-.93,3.64-2.78,5.66a7.14,7.14,0,0,1-5.22,2.64q-5.22,0-7.31-6.79-3.48-10.19-16.88-60.92t-18.26-72.23l-1.39-5.66L612.58,328q-36.2,1.51-37.23,1.89-1.4.75-11.48,29.42-9.75,27.92-14.27,33.57-4.87,6-12.52,29.42-10.44,29-15.66,39.42t-10.09,10.37A8.23,8.23,0,0,1,507.5,471q-3.48-1.51-3.48-6t3.48-12.07q3.83-7.55,17.75-46,12.53-35.07,22.27-56.58,1.72-3.76,3.82-8.86c1.4-3.39,2.44-5.85,3.14-7.35l.69-2.27q-4.17,0-21.92,2.27-24.36,2.64-29.92,2.64-8.35,0-11.14-2.08t-2.78-7q0-8.3,16-8.3,14.61,0,14.61-6,0-5.28,6.09-7.36t21.74-2.45l19.49-.38,19.83-42.62q18.09-39.6,29.23-60.73L626.15,182l-1.39-21.87q-.71-12.08-.7-14.34C624.06,140.79,624.64,137.39,625.8,135.63Zm18.79,163.7q-9.75-61.47-11.48-70.53l-2.78-17.35-12.88,25.27q-9,17.73-19,40t-9.92,24.14l28.53,1.51,28.19.75Zm5.22-79.21q0-1.12-.7-11.13t-1.74-17.91c-.69-5.28-1.51-7.92-2.43-7.92-.7,0-1,1.51-1,4.52q0,12.45,4.52,31.31l2.43,11.69Zm1.39,17.35c0,1.76.12,2.64.35,2.64l.7-3.77v-1.51A5.38,5.38,0,0,0,651.2,237.47Zm1.39,11.7c0,1.76.47,2.2,1.4,1.32a1.79,1.79,0,0,0,0-2.83C653.29,247.66,652.82,248.16,652.59,249.17Z"/><path class="cls-1" d="M857.59,163.92Q876,162,879.86,162h1q2.08,0,12.52,1.51,11.13,1.89,16.35,7.17Q915,176.36,915,182.4q0,4.15-2.78,5.28t-31,1.13q-29.22,0-34.44,1.14l-6.61,1.13q-1.76,10.93-5.74,32.44t-6.09,32.06l3.13,53.56q2.09,35.46,2.09,57.33a512.21,512.21,0,0,1-3.14,53.94q-1.74,15.46-4.52,20.75a8,8,0,0,1-7.31,4.15q-7.65,0-7.65-7.92,0-3-3.48-6.79-4.17-4.16-5.57-16t-1.74-42.44q0-62.24,6.61-106.37,2.79-17,3.48-45.26l1.05-25.65H806.1a70.88,70.88,0,0,0-15,1.51q-44.88,8.69-56,8.67a11,11,0,0,1-4.87-.75q-3.48-1.5-3.48-6.41a9.33,9.33,0,0,1,4.17-7.92c1.86-1.76,2.67-2.7,2.44-2.83s-1.74.19-4.52.94a12.48,12.48,0,0,1-9.05-1.13Q716,184.66,716,179a6.75,6.75,0,0,1,2.09-5.28q4.17-3.4,28.71-6.23a446.14,446.14,0,0,1,51-2.83c1.62,0,4.11.07,7.48.19s5.85.19,7.48.19h11.13Q845.07,165.05,857.59,163.92Z"/><path class="cls-1" d="M1031.07,156.75c1.62-1.25,5-1.88,10.09-1.88q12.52,0,33.06,3.77,21.57,3.78,21.57,13.2,0,4.16-1.22,5.28c-.82.76-3,1-6.44.76q-4.17,0-18.26-1.89a173.8,173.8,0,0,0-20.36-1.89,21.35,21.35,0,0,0-4.87.38q-6.62.77-10.09,2.64t-9.74,8.3q-8.7,8.69-25.4,30.36t-25.75,35.65a227.81,227.81,0,0,0-17.57,32.06q-8.87,19.25-12.35,31.69-3.13,10.56-3.13,13.57,0,2.26,2.43,10.19,7.32,25.65,25.06,51.67a191.46,191.46,0,0,0,20,24.9q12,12.83,19.66,17.73,11.13,6.78,11.13,13.58,0,4.14-5.56,6.41a6.76,6.76,0,0,1-2.79.38q-7.65,0-24.87-4.72t-24.19-8.49q-12.87-7.54-23.66-24.14t-13.91-33.57q-1.75-10.19-1.74-33.94V341.2q0-23-1-39.6-.35-6-.34-14.71,0-10.93,3.13-27.16,4.17-19.61,10.44-32.06t18.09-25.28q25.39-26.77,62.63-38.85Q1027.23,159.78,1031.07,156.75Zm-49.4,54.7q13.91-17.73,13.91-20h-.35q-2.43,0-13.91,8.29t-16.7,13.58q-23.32,24.9-27.14,61.11L936.43,285l7.31-14.33A364.79,364.79,0,0,1,981.67,211.45ZM949,391.37q-7.31-12.08-8-12.07c-.7,0-1.05.51-1.05,1.51q0,4.15,5.57,15.09a98.65,98.65,0,0,0,11.13,17.72q12.18,14,17,14c.46,0,.7-.13.7-.38q0-.75-9.05-12.07A174,174,0,0,1,949,391.37Z"/><path class="cls-1" d="M1246.86,127a10,10,0,0,1,5.57-2.26q6.94,0,7,10.94a20.23,20.23,0,0,1-.34,4.15q-1.76,10.18-2.09,11.31c-.47,1.77.46,3,2.78,3.78q3.82,1.13,3.83,7.16,0,4.53-2.78,11.7-4.18,10.94-9,44.32t-7,65.44c-.23,2.52-.35,5.28-.35,8.3,0,4,1,6,3.13,6,2.32,0,4.76,1.39,7.31,4.15a23.1,23.1,0,0,0,8.7,6q6.6,2.64,6.61,7.92,0,4.53-4.17,9.05a25.54,25.54,0,0,1-11.49,6.79l-8.35,3-1.39,21.5c-.47,8-.69,13.45-.69,16.22a48.27,48.27,0,0,0,.69,9.81,61.87,61.87,0,0,1,.7,10.56q0,12.83-1.57,28.66t-3.3,17.36q-4.53,4.89-9.4,1.13-5.92-4.15-8.35-66.77l-1-32.44L1207.54,342a60.76,60.76,0,0,1-7.65.37c-4.41,0-7.48-.62-9.22-1.88s-2.61-3.4-2.61-6.41c0-2.52-1-3.78-3.13-3.78-.24,0-2.67.26-7.31.76a82.74,82.74,0,0,0-19.49,4.52l-9,3.4.69,14.71q3.13,56.58,3.14,70.91c0,7.79-.59,12.7-1.74,14.71q-2.79,4.53-5.22,4.53t-.7,6a34.46,34.46,0,0,1,1.39,9.43q0,5.28-3.48,7.55a5.91,5.91,0,0,1-7,0q-5.57-3-9.91-29.42t-5.74-65.26l-1-35.45h-5.22a11.44,11.44,0,0,1-7-2.64c-2.33-1.76-3.48-3.65-3.48-5.66,0-2.27,1.27-4.34,3.82-6.23a13.32,13.32,0,0,1,8-2.83h5.56l1-26q3.46-77,7.3-82.61a6.45,6.45,0,0,1,4.88-2.26c1.39,0,2.37-.88,3-2.64s1.1-5.66,1.57-11.69q1.38-15.47,2.78-20,2.79-7.92,7.66-7.92c1.62,0,3.24.89,4.87,2.64a10.19,10.19,0,0,1,2.43,7.17q0,1.89-1.74,19.61-6.26,61.88-6.26,98.45V314.8l11.48-3.77q7.3-1.89,14.44-3.21t15.83-2.83c5.8-1,10.79-1.89,15-2.64q12.87-2.64,13.57-2.64t2.09-32.82a587.44,587.44,0,0,1,9.74-88.64Q1239.21,133.37,1246.86,127Z"/><path class="cls-1" d="M1402.59,173.73q3.48-4.9,8.35-3.4a29.29,29.29,0,0,0,7.66,1.13c4.87,0,7.3,3.53,7.3,10.56a13.28,13.28,0,0,1-.17,1.51,11.57,11.57,0,0,0-.17,1.51,35,35,0,0,0-.7,4.91,9,9,0,0,0,2.78,6q3.83,3.39,7,16.22,5.57,23,21.57,53.56,7.3,13.22,17,31.69l7.66,14.33,8.7-16.6q18.78-33.56,50.1-69.78,19.83-23,24.35-23,5.22,0,12.18-8.67,7.3-8.67,12.18-8.68,3.13,0,5.22,3.4,2.43,3.76,7.65,3.77h1q6.26,0,6.26,6.41,0,5.65-5.91,29.42-20.54,81.11-26.45,133.91-2.43,24.14-4.17,30.93c-1.17,4.52-2.91,7.42-5.22,8.67a6.11,6.11,0,0,0-3.31,4q-.87,2.83-1.56,11.51-1.4,14.72-2.79,17.35a6.11,6.11,0,0,1-5.91,3.39,10,10,0,0,1-7.66-3.39q-2.43-2.64-2.43-18.11,0-29.42,7-71.66,10.77-66.77,20.87-106.75c.47-2.51.35-3.77-.35-3.77q-1.4.75-35.31,46t-44,59.59q-6.27,8.69-11.83,8.68-6.27,0-6.27-10.56-.71-6.42-10.09-21.5-7-10.56-38.27-63L1420,245l-3.83,27.91q-5.22,38.1-8.35,90.15-2.44,41.12-4,50.35t-5.39,11.89q-4.18,3-7.66,1.13c-1.62-1-2.84-3.14-3.65-6.41a56.78,56.78,0,0,1-1.57-9.06c-.23-2.76-.46-4.15-.69-4.15q-1.39,0-5.57,22.26-4.87,24.51-6.09,28.29a7.12,7.12,0,0,1-5,4.9,5.61,5.61,0,0,1-2.44.38,6.42,6.42,0,0,1-5.22-2.64,10,10,0,0,1-2.09-6.41q0-6.42,15-102.22,11.49-72.79,18.1-119.58l3.13-22.25-4.18-8.3c-1.86-4-2.78-7-2.78-9q0-5.66,7.31-6.79c3.24-.5,4.87-1.76,4.87-3.77A14.31,14.31,0,0,1,1402.59,173.73Zm186.84,40.36a24.85,24.85,0,0,0,1.74-6.79c0-1-.23-1.51-.69-1.51q-1.76,0-4.18,4.15-4.17,6.42-1.74,8.3Q1587,219.74,1589.43,214.09Z"/><path class="cls-1" d="M1649.69,186.93a22.7,22.7,0,0,1,8.35-1.51c3.25,0,5.34.51,6.27,1.51s11.36,2.26,31.31,3.77q89.42,5.3,95.68,11.69a9.09,9.09,0,0,1,2.09,6.42q0,6.78-4.52,7.92-4.53,1.5-26.1,3.39T1726.24,222q-40,0-52.54-6.79l-4.52-2.64,3.13,16.59q3.46,18.5,4.52,53.19l1.05,36.21,9.74.38a227.9,227.9,0,0,1,51.15,8.3q6.6,1.89,8,6.79a12.35,12.35,0,0,1,.35,3.39q0,5.65-9.75,8.3t-42.44,6.79l-18.79,2.26-1.05,7.17a117.34,117.34,0,0,0-1.39,20.37,283.37,283.37,0,0,1-1.74,30.93q-1.39,13.58-1.39,16.22c0,1.25.11,1.88.35,1.88q2.08,2.26,45.23,5.28,6.6.38,25.75,3,13.9,1.89,37.23,1.89,14.61,0,19,.75a11.51,11.51,0,0,1,6.78,3.4q3.14,3.39,3.13,5.65,0,1.89-2.08,5.28c-1.17,1.51-3.54,2.46-7.14,2.83s-12.12.57-25.57.57h-25.4q-42.11-.37-56-1.89t-15.65-6a5,5,0,0,0-4.87-2.64q-3.84,0-5.22,6.79-1.75,10.19-8.35,10.18a8.44,8.44,0,0,1-2.79-.38c-3-.75-4.87-2.89-5.56-6.41a47.59,47.59,0,0,0-4.53-11.69q-3.48-6-1-10.56,1.74-3.78,1.74-12.07,0-2.26-.7-16.6-.71-13.2-2.08-119.57-.71-58.08-.7-64.12,0-17.73.87-25.47c.58-5.15,1.27-8.29,2.09-9.43A11.22,11.22,0,0,1,1649.69,186.93Zm10.09,135.41q1.4-6.4,1.4-26.78,0-24.51-1.4-24.52a4.63,4.63,0,0,0-.69,1.13q-1,3.4-1,33.2.35,21.12.7,21.12C1659,326.49,1659.32,325.11,1659.78,322.34Z"/><path class="cls-1" d="M1807,176.28c4.19-4.14,6.78-7.22,9.9-9.61,2.43-1.87,5.42-3.81,8.33-4.12,13.39-1.42,21.89-8.86,26.1-21.05,3.85-11.15,6.71-22.65,9.85-33.46-9.17,1.75-17.49,5.1-25.53,4.53-22.19-1.6-36.66-16.63-36.47-39.82a141.41,141.41,0,0,1,7.78-45.13c8.35-23.7,23.63-29.34,47.7-21.45,14.71,4.82,27,19.66,26.8,35.58-.18,15,3.44,29.9,4.71,44.91,1.57,18.57-2.94,35.76-13.15,51.49-4,6.2-7.33,12.84-11,19.24-8.6,14.83-21.79,22.78-38.61,23.5C1817.68,181.13,1811.87,177.75,1807,176.28Zm12-95.49,34.78-44.74c-19.68-1.5-24,19.76-38.11,23.74l-2.47-2c7.55-11.55,15.1-23.09,22.76-34.82-8.91-4.92-12.4-.23-15.61,4.93C1810,44.57,1809.21,69.36,1819,80.79Zm8.24,5.76c8.49,1.06,14-6.35,16.55-21.2Z"/><path class="cls-1" d="M1980.68,87.06c-14.51,15.75-42.7,10.16-50.64-8.51-3.27-7.66-6.82-15.38-8.69-23.43-3-13-1-24.87,10.91-33.5,4.39-3.16,8-7.48,11.88-11.3,18.83-18.29,43.22-11.49,50,14.26a149.75,149.75,0,0,1,4.58,26.58c2.12,26.83,3.14,54.08-11.2,78.05-6.68,11.16-17.17,20.52-27.39,28.93-8.55,7.05-19,4.58-28-1.15-6.75-4.29-6.32-10.43.65-14.21a79.78,79.78,0,0,1,11.33-5.38c12.06-4.27,19.77-12.94,25-24.15C1973.12,104.6,1976.83,95.8,1980.68,87.06Zm-17.2-61.88C1944.92,22.92,1933,37.49,1939.9,58Zm-18,46.43,2.07,1.86a53.39,53.39,0,0,0,5.55-3.75c7.26-6.31,14.63-12.53,21.49-19.25,1.94-1.91,3.88-7.2,3.11-7.88-3.37-3-7.54-5-11.38.27-5.12,7-10.68,13.63-15.88,20.55A91.57,91.57,0,0,0,1945.44,71.61Z"/></svg>