<svg xmlns="http://www.w3.org/2000/svg" viewBox="0 0 2000 500"><defs><style>.cls-1{fill:#fff;}</style></defs><g id="_3" data-name="3"><path class="cls-1" d="M62.34,179.94l1.24,1.35-2.43,3.85,1.19,1.35v2.57q0,2.64-9.6,2.64l-25.19,9.05-6,5.21L18,238.46H19.2l15.58-5.2,3.62,5.2v1.29q-5.25,7.83-20.39,7.83H16.77v7.78l-3.56,32.5,23.94-13,12-2.63,1.19,1.35v3.85q-4.8,15.62-21.57,15.61,0,2.88-22.81,10.41H3.61L0,299.55l3.61-5.2v-5.2l-1.24-6.49,1.24-7.78V273.6l-1.24-5.21L4.8,254.07,3.61,245q2,0,8.36-36.36v-1.35c-2.37,0-3.56-.85-3.56-2.57A10.53,10.53,0,0,0,12,196.9Q51.56,180,62.34,179.94Z"/><path class="cls-1" d="M123.74,194.08q6.78,5.38,6.78,9.8-2.27,4-5.65,33.24l-1.13,1.22,1.13,4.9q-10.22,34.1-14.74,57.78l-3.44,2.45h-1.13q-15.07-14.82-29.47-62.68l-5.65-7.41v-3.67h1.13l1.13,1.22h1.13v-3.67H72.7l-3.39,2.45q-3.45-18.06-8-23.32V205.1c0-1.63,1.13-2.45,3.39-2.45q13.61,7.11,13.61,20.94L87.44,242l-1.13,1.23q2.31,0,6.77,16,2.78,0,5.71,16l1.12,1.22h2.26q3.78-27.84,9.09-41.8l-1.13-6.13q2.15-5.62,4.52-6.12l-1.13-1.22v-2.51l7.91-23.32,1.13-1.23Z"/><path class="cls-1" d="M192.09,179.94l1.25,1.35-2.43,3.85,1.18,1.35v2.57q0,2.64-9.59,2.64l-25.19,9.05-6,5.21-3.56,32.5H149l15.58-5.2,3.61,5.2v1.29q-5.25,7.83-20.38,7.83h-1.24v7.78L143,287.86l23.94-13,12-2.63,1.18,1.35v3.85q-4.8,15.62-21.57,15.61,0,2.88-22.81,10.41h-2.37l-3.61-3.92,3.61-5.2v-5.2l-1.24-6.49,1.24-7.78V273.6l-1.24-5.21,2.43-14.32L133.37,245q2,0,8.36-36.36v-1.35c-2.37,0-3.56-.85-3.56-2.57a10.53,10.53,0,0,0,3.56-7.77Q181.32,180,192.09,179.94Z"/><path class="cls-1" d="M239.78,185.33h1.13q2.31,0,2.31,3.79l-1.13,6.25,1.13,3.79-2.31,36.42v13.78l-1.13,7.53,1.13,5-1.13,1.28,1.13,8.76q0,38.43,4.63,50.19l-2.32,2.57q-17.83-8.26-26.65-37.65l-5.76-16.34,1.13-1.28q-9.25-16.29-9.26-27.61h-2.31l1.18,1.28v3.74l-2.31,33.91v21.36l-2.32,2.45h-1.18l-3.45-3.73v-6.25l-1.18-10,1.18-8.81L191.11,272l1.18-7.53v-1.23l-1.18-7.53,2.31-3.79-1.13-1.23v-6.3L194.61,228l-1.19-10,1.19-5-1.19-10,7-2.51h1.18l3.45,3.79-1.13,1.23v1.28L221.2,272q5.93,18.36,9.26,18.85h1.19l-2.32-22.59,2.32-6.3-1.19-1.23,2.32-21.36-1.13-6.25V218l2.31-3.74v-7.53Q236.28,185.33,239.78,185.33Z"/><path class="cls-1" d="M356.49,175.41l2.83,3.13v2q-3.17,0-7.63,33.06l-9.48,26.87,1.86,31v7.22L346,285.9l-1,1v1l1,3.12,4.74-1q-6,13.41-7.62,13.41-3.45,0-4.74-22.71v-7.22l-1.92-7.23,1-3.12-1.92-27.85q-26.88-30-32.36-30l-1-1v-1c0-1.39,1.27-2.09,3.79-2.09v-1L303.13,196v-1c0-1.38.94-2.08,2.83-2.08l13.38,13.41q6.56,0,15.24,17.57l.91,1h1a35.9,35.9,0,0,1,5.76-19.64Q343.68,193.77,356.49,175.41Z"/><path class="cls-1" d="M399.94,167.27h3.45q26.88,12.55,42.57,45.42l3.45,20.63-1.19,1.35v1.4l1.19,4.11q0,47.13-38,60.53-5.71,0-9.15,2.76-21.06,0-35.69-23.38l-3.44-12.37,2.31-11-1.18-8.26,1.18-4.1-2.31-2.76v-9.67q0-29.5,29.92-60.54Zm-10.39,24.79v2.7h5.76l2.32,2.75v1.41q0,2.75-9.21,4.1-10.32,25.15-10.33,57.78l3.45,4.17h1.13v2.75q-4.57,0-4.58,2.76,2.31,19.22,12.65,19.22l1.13-1.35,11.52,2.75q24.11-3.48,25.29-15.12,6.9-30.42,6.89-49.58V221q0-20.21-21.85-31.65l-11.46-2.76Zm9.21-17.93,2.31,2.75h4.63v-2.75Z"/><path class="cls-1" d="M465.47,188.94h1.19q4.8,0,4.8,45.54v14.33l-1.19,9.12c2.37,0,3.56.85,3.56,2.57v7.83q0,17.21,13.21,20.82,0-1.9,13.21-6.49l3.62-10.41L502.68,271l1.19-9.12v-43l-2.43-15.61,1.24-1.28-3.61-3.92v-5.2l2.37-2.63h1.24q9.6,0,15.59,61.21l-1.19,1.28,1.19,6.49v22.16q0,17.08-22.82,22.1h-3.61q-26.37-3.24-26.37-22.1l-7.23-39.05,3.62-5.2v-2.64l2.37-24.73L463,202l1.19-1.29v-1.34L463,191.57Z"/><path class="cls-1" d="M528,190.35q17.38,0,30,18.61l-.45,19.95Q557,239,547.26,252.05q19.82,26.68,37.49,46.77,11.24,17.25,5.65,27.73l-5.31-1.84q6.72-10.59-6.49,2.69-33-57.16-37.44-65.49h-2V263l1,6.61v1.1l-1,1.1,2,6.61v11l1,13.22-1,1.11h-3q-3,0-4.06-13.23-2,0-3-18.73h1l-1-1.1V257.5l1-1v-1.1q-4.47,0-6.1-4.41l2-3.31v-3.3q-7.11-2.88-7.11-5.51v-1.1l2-2.21h3l5.08,3.31v-2.21l-2-11,1-3.31q-2.25-26.45-6.1-26.44v-2.21Zm11.18,22-1,8.82,1,6.61-1,9.92h2q10.15-1.11,10.16-11L549,213.55A39.52,39.52,0,0,1,539.13,212.38Zm2,34.16v1.1h2v-1.1Zm0,0v1.1h2v-1.1Zm31.11,52.28,2.94,5.26,8.24,9.18-6.72-16.16,2,9.37Z"/><path class="cls-1" d="M686.17,177.19l1.91,2.08-1,5.08v13.34l-7.56,69.85,1,1v1a179.43,179.43,0,0,0-2.88,31.77L672,303.47l-1-1V287.06l1-4.1-1-4.16,1.87-6.12V257.25l3.78-41.07v-1h-.9q-9.49,51.3-16.1,51.3h-1.92Q645.46,223,645.45,209h-1.92l1,10.28-1.86,17.45v7.16l2.82,38-2.82,2h-1l-2.82-3.06.9-1v-1q-2.82-1-2.82-6.12V194.63c.37-4.12,1.32-6.18,2.82-6.18l-.9-1v-2.08l2.82-3.06q8.3,0,14.17,49.28a56.69,56.69,0,0,1,4.75,16.4h1.92q4.46-28.71,7.56-28.71l-1-1v-1l6.67-20.51q1.51-1,4.74-16.46Z"/><path class="cls-1" d="M731.7,167.27h3.45q26.88,12.55,42.57,45.42l3.45,20.63L780,234.67v1.4l1.19,4.11q0,47.13-38,60.53-5.71,0-9.15,2.76-21.06,0-35.69-23.38l-3.44-12.37,2.31-11L696,248.44l1.18-4.1-2.31-2.76v-9.67q0-29.5,29.93-60.54Zm-10.39,24.79v2.7h5.76l2.32,2.75v1.41q0,2.75-9.2,4.1-10.34,25.15-10.34,57.78L713.3,265h1.13v2.75q-4.57,0-4.58,2.76,2.32,19.22,12.65,19.22l1.13-1.35,11.52,2.75q24.11-3.48,25.29-15.12,6.9-30.42,6.89-49.58V221q0-20.21-21.85-31.65L734,186.55Zm9.21-17.93,2.31,2.75h4.63v-2.75Z"/><path class="cls-1" d="M839.24,177.19l1.92,2.08-1,5.08v13.34l-7.56,69.85,1,1v1a179.43,179.43,0,0,0-2.88,31.77l-5.65,2.08-1-1V287.06l1-4.1-1-4.16,1.86-6.12V257.25l3.79-41.07v-1h-.91q-9.48,51.3-16.09,51.3h-1.92Q798.53,223,798.53,209h-1.92l1,10.28-1.86,17.45v7.16l2.82,38-2.82,2h-1l-2.83-3.06.91-1v-1c-1.88-.65-2.83-2.69-2.83-6.12V194.63q.57-6.18,2.83-6.18l-.91-1v-2.08l2.83-3.06q8.29,0,14.17,49.28a57,57,0,0,1,4.74,16.4h1.92q4.47-28.71,7.57-28.71l-1-1v-1l6.66-20.51q1.53-1,4.75-16.46Z"/><path class="cls-1" d="M936,187.17q5.13,0,7.85,35.13,5.58,0,5.59,33.91,2.19,0,3.33,21.79,1.8,0,5.59,23L955,303.47h-1.13q-10-10.71-22.36-40l-1.13-1.23-5.59-9.67-25.69,46h-2.26q-1.64,0-3.33-4.83l1.13-23v-1.22l-1.13-12.12,1.13-1.23h1.12L894.64,255l2.2-13.28-1.08-1.23L898,225.91l-1.13-6.06L904.69,192l1.12-1.22h1.13l3.34,3.67q-1.92,0-7.85,72.66h1.13l16.77-27.85L918.07,232l3.39-1.22,4.46,2.45-3.45,5.57,2.09-3.19,1.36,1.47,3.84,3.62.62,1v3.61l11.18,21.79v-6.06l-2.26-4.84,1.13-1.22v-1.16l-5.59-32.75H936l-4.46-13.35v-2.38l2.25-2.45-1.12-8.45v-3.67Z"/><path class="cls-1" d="M1003.92,172.66h1.7q3.11,0,13.55,29.32h-1.7l5.09,27.48-1.7,1.84v1.84q6.78,38.37,11.8,49.58l-6.72,5.45,5.09,9.18v11l-3.39,3.67h-1.7q-11-9.18-16.94-42.18l-5.08-3.67H983.6q-11,32.63-18.58,38.5l-1.69-1.83h-1.7q0-9.18,6.78-27.49l1.69-11H959.94l-5.08-5.5q0-6.8,22-9.19,7.9-34.46,22-55V178.11Zm-15.24,77v1.84h8.47l10.89,1.71-5.87-39.54Z"/><path class="cls-1" d="M1029.81,167.21l1.3,1.47h1.36l9.37-1.47,38.85,1.47h38.85l-5.37,11.63,11.41-5.57q-1.42-2.27-10,5.88l-38.9,4-4,1.4v10.23L1070,212.2v2.94l1.35,4.35-1.35,7.28,4,69.72-4,2.88-9.37-13.1-6.67-4.35,5.31-49.33-1.3-1.47,2.66-45.06h-18.75c-2.22,0-3.56-1.91-4-5.75H1027.1q-7.17,0-9.37-5.82Q1021.45,167.21,1029.81,167.21Z"/><path class="cls-1" d="M1132.44,171.07q6,0,9,6.48v3.31l-1.47,1.59v1.66q4.9,0,7.51,21.18l-4.52,3.24h-1.52q-4.76,0-7.51-19.53l-1.47-1.65h-1.53l-6,8.14v-1.65q-11.58,0-21.06,37.46-1.47,9.06-6,14.69v9.73q3.84,35.88,12,35.87,20.1,0,22.53,3.25l16.49-1.65,1.52,1.65v1.65q0,2.7-45.06,14.63-22.53-11.39-22.53-26.08-4-7-4.52-26V246q5.09,0,9-21.18,10.62-27.36,27-40.7Q1114.43,176.51,1132.44,171.07Z"/><path class="cls-1" d="M1175.66,164.09,1178,168v28.64l1.25,11.76-1.25,9.05v5.27h19.26l2.37-2.63V191.45q0-9.62,3.61-10.41l-1.18-1.34v-7.78l4.8-5.2,7.23,5.2v3.92l-2.43,31.22v20.87l2.43,2.57-3.62,6.55V254l-1.18,1.34,2.37,19.53-4.8,9.12v15.61l-3.62,3.92-3.61-3.92V268.27l-1.19-7.77,1.19-6.55v-1.29l-1.19-7.83,1.19-6.49h-22.81q0,59.93-6,59.93h-1.24l-3.56-3.92V283.94l-2.42-9.12,1.18-5.2-1.18-3.92,4.8-65.13v-7.83l4.79-18.25-2.37-2.57v-2.63Z"/><path class="cls-1" d="M1287.49,179.94l1.24,1.35-2.43,3.85,1.19,1.35v2.57q0,2.64-9.6,2.64l-25.18,9.05-6,5.21-3.55,32.5h1.18l15.59-5.2,3.61,5.2v1.29q-5.25,7.83-20.38,7.83h-1.25v7.78l-3.55,32.5,23.94-13,12-2.63,1.19,1.35v3.85q-4.8,15.62-21.57,15.61,0,2.88-22.81,10.41h-2.37l-3.62-3.92,3.62-5.2v-5.2l-1.24-6.49,1.24-7.78V273.6l-1.24-5.21,2.42-14.32-1.18-9.12q2,0,8.35-36.36v-1.35c-2.37,0-3.55-.85-3.55-2.57a10.52,10.52,0,0,0,3.55-7.77Q1276.71,180,1287.49,179.94Z"/><path class="cls-1" d="M1315.81,179q34.21,7.9,34.22,13.23v2.63L1341.44,224q0,23.56-37.83,68.86-6.94,10.59-14.68,10.59l-2.43-2.63v-2.7l4.92-5.26-1.25-6.61V247.83l-1.24-6.61h1.24l-2.42-5.27q1.18-19.89,3.67-19.89l-1.25-1.29V197.51l1.25-1.29-1.25-1.34v-4Q1290.17,184.6,1315.81,179Zm-15.87,87.36,1.24,13.28h1.19q23.66-24.3,28.12-54.3l3.67-17.2c-1.66,0-2.48-3.1-2.48-9.3q-2.16-6.62-8.53-6.61h-14.68q-8.54,0-8.53,17.2Z"/><path class="cls-1" d="M1392,167.21l1.3,1.47h1.35l9.37-1.47,38.85,1.47h38.85l-5.36,11.63,11.4-5.57q-1.41-2.27-10,5.88l-38.91,4-4,1.4v10.23l-2.71,15.91v2.94l1.36,4.35-1.36,7.28,4,69.72-4,2.88-9.37-13.1-6.66-4.35,5.31-49.33-1.3-1.47,2.65-45.06h-18.75c-2.22,0-3.55-1.91-4-5.75h-10.73q-7.17,0-9.38-5.82Q1383.69,167.21,1392,167.21Z"/><path class="cls-1" d="M1455.53,164.09l2.38,3.92v28.64l1.24,11.76-1.24,9.05v5.27h19.25l2.37-2.63V191.45q0-9.62,3.61-10.41L1482,179.7v-7.78l4.8-5.2,7.23,5.2v3.92l-2.43,31.22v20.87l2.43,2.57-3.62,6.55V254l-1.18,1.34,2.37,19.53-4.8,9.12v15.61l-3.62,3.92-3.61-3.92V268.27l-1.18-7.77,1.18-6.55v-1.29l-1.18-7.83,1.18-6.49h-22.81q0,59.93-6,59.93h-1.24l-3.56-3.92V283.94l-2.42-9.12,1.18-5.2-1.18-3.92,4.8-65.13v-7.83l4.8-18.25-2.38-2.57v-2.63Z"/><path class="cls-1" d="M1567.36,179.94l1.24,1.35-2.42,3.85,1.18,1.35v2.57q0,2.64-9.6,2.64l-25.18,9.05-6,5.21-3.55,32.5h1.18l15.59-5.2,3.61,5.2v1.29q-5.25,7.83-20.38,7.83h-1.25v7.78l-3.55,32.5,23.94-13,12-2.63,1.18,1.35v3.85q-4.8,15.62-21.57,15.61,0,2.88-22.81,10.41h-2.37l-3.61-3.92,3.61-5.2v-5.2l-1.24-6.49,1.24-7.78V273.6l-1.24-5.21,2.43-14.32-1.19-9.12q2,0,8.36-36.36v-1.35c-2.38,0-3.56-.85-3.56-2.57a10.53,10.53,0,0,0,3.56-7.77Q1556.57,180,1567.36,179.94Z"/><path class="cls-1" d="M1674.31,194.08q6.78,5.38,6.77,9.8-2.25,4-5.64,33.24l-1.13,1.22,1.13,4.9q-10.23,34.1-14.74,57.78l-3.44,2.45h-1.13q-15.08-14.82-29.48-62.68l-5.64-7.41v-3.67h1.12l1.13,1.22h1.13v-3.67h-1.13l-3.38,2.45q-3.45-18.06-8-23.32V205.1c0-1.63,1.12-2.45,3.38-2.45q13.6,7.11,13.61,20.94L1638,242l-1.13,1.23q2.33,0,6.78,16,2.76,0,5.7,16l1.13,1.22h2.26q3.78-27.84,9.09-41.8l-1.13-6.13q2.15-5.62,4.52-6.12l-1.13-1.22v-2.51l7.9-23.32,1.13-1.23Z"/><path class="cls-1" d="M1708.5,177.68q11.24,1.53,11.23,4.89-2.09,0-6.72,9.74l-6.77,2.45,2.26,30.54-2.26,4.9,2.26,2.45v4.89l-1.13,22,1.13,3.67-1.13,11v6.12l7.85-1.23,2.26,3.68v1.22q-.4,3.49-16.89,9.74l-4.51,6.12-1.13-1.23h-1.13l-11.24,4.9-2.26-3.67c0-1.64,1.13-2.45,3.39-2.45l1.13-1.23V294.9l-1.13-3.67q4.29-4.85,9-4.84l-1.07-8.57v-3.67l1.07-15.86-1.07-4.89q2.19-48,6.71-57.42h-1.12l-1.13-1.22L1695,196h-1.13q-5.82,0-6.72-3.67v-2.39l1.13-3.67h-1.13l-2.26-2.45c1.54-3.26,3.42-4.9,5.65-4.9l1.13,1.23Z"/><path class="cls-1" d="M1759.29,179q34.21,7.9,34.22,13.23v2.63L1784.92,224q0,23.56-37.83,68.86-6.94,10.59-14.68,10.59l-2.43-2.63v-2.7l4.92-5.26-1.25-6.61V247.83l-1.24-6.61h1.24l-2.42-5.27q1.18-19.89,3.67-19.89l-1.25-1.29V197.51l1.25-1.29-1.25-1.34v-4Q1733.65,184.6,1759.29,179Zm-15.87,87.36,1.24,13.28h1.19q23.65-24.3,28.12-54.3l3.67-17.2c-1.66,0-2.48-3.1-2.48-9.3q-2.16-6.62-8.53-6.61H1752q-8.54,0-8.53,17.2Z"/><path class="cls-1" d="M1867.84,179.94l1.24,1.35-2.42,3.85,1.18,1.35v2.57q0,2.64-9.6,2.64l-25.18,9.05-6,5.21-3.56,32.5h1.18l15.59-5.2,3.61,5.2v1.29q-5.25,7.83-20.38,7.83h-1.24v7.78l-3.56,32.5,23.94-13,12-2.63,1.18,1.35v3.85q-4.8,15.62-21.57,15.61,0,2.88-22.81,10.41h-2.37l-3.61-3.92,3.61-5.2v-5.2l-1.24-6.49,1.24-7.78V273.6l-1.24-5.21,2.43-14.32-1.19-9.12q2,0,8.36-36.36v-1.35c-2.38,0-3.56-.85-3.56-2.57a10.53,10.53,0,0,0,3.56-7.77Q1857,180,1867.84,179.94Z"/><path class="cls-1" d="M1903.67,167.27h3.44q26.88,12.55,42.58,45.42l3.44,20.63-1.18,1.35v1.4l1.18,4.11q0,47.13-38,60.53-5.7,0-9.14,2.76-21.08,0-35.69-23.38l-3.44-12.37,2.31-11-1.19-8.26,1.19-4.1-2.31-2.76v-9.67q0-29.5,29.92-60.54Zm-10.39,24.79v2.7H1899l2.32,2.75v1.41q0,2.75-9.21,4.1-10.34,25.15-10.33,57.78l3.44,4.17h1.13v2.75q-4.58,0-4.57,2.76,2.31,19.22,12.65,19.22l1.13-1.35,11.51,2.75q24.12-3.48,25.3-15.12,6.88-30.42,6.89-49.58V221q0-20.21-21.85-31.65L1906,186.55Zm9.2-17.93,2.32,2.75h4.63v-2.75Z"/><path class="cls-1" d="M1971.85,287.68l.85.79,1.69,1.59.85-.79h5.93l3.39,3.24v.8l-1.7,2.45,3.39,4q0,1.59-8.47,1.59c-.19,1.31-3.86,2.91-11,4.83h-1.69l-2.54-1.65.84-4L1960,294.9Q1963.28,287.67,1971.85,287.68Zm9.88-124,8.13,7.53-8.13,78.11v11.32l1.13,5.08c-1,4.2-2.12,6.31-3.44,6.31l-9.32-10.1V250.58l7-47.87v-16.4l2.37-2.51L1977.05,165l1.18-1.29Z"/></g></svg>